%TF.GenerationSoftware,KiCad,Pcbnew,8.0.9-1.fc41*%
%TF.CreationDate,2025-10-07T12:33:13-07:00*%
%TF.ProjectId,silvia_pid_board,73696c76-6961-45f7-9069-645f626f6172,rev?*%
%TF.SameCoordinates,Original*%
%TF.FileFunction,Paste,Bot*%
%TF.FilePolarity,Positive*%
%FSLAX46Y46*%
G04 Gerber Fmt 4.6, Leading zero omitted, Abs format (unit mm)*
G04 Created by KiCad (PCBNEW 8.0.9-1.fc41) date 2025-10-07 12:33:13*
%MOMM*%
%LPD*%
G01*
G04 APERTURE LIST*
G04 Aperture macros list*
%AMRoundRect*
0 Rectangle with rounded corners*
0 $1 Rounding radius*
0 $2 $3 $4 $5 $6 $7 $8 $9 X,Y pos of 4 corners*
0 Add a 4 corners polygon primitive as box body*
4,1,4,$2,$3,$4,$5,$6,$7,$8,$9,$2,$3,0*
0 Add four circle primitives for the rounded corners*
1,1,$1+$1,$2,$3*
1,1,$1+$1,$4,$5*
1,1,$1+$1,$6,$7*
1,1,$1+$1,$8,$9*
0 Add four rect primitives between the rounded corners*
20,1,$1+$1,$2,$3,$4,$5,0*
20,1,$1+$1,$4,$5,$6,$7,0*
20,1,$1+$1,$6,$7,$8,$9,0*
20,1,$1+$1,$8,$9,$2,$3,0*%
G04 Aperture macros list end*
%ADD10RoundRect,0.250000X-0.400000X-0.625000X0.400000X-0.625000X0.400000X0.625000X-0.400000X0.625000X0*%
%ADD11RoundRect,0.249999X0.450001X1.425001X-0.450001X1.425001X-0.450001X-1.425001X0.450001X-1.425001X0*%
%ADD12RoundRect,0.249999X-1.425001X0.450001X-1.425001X-0.450001X1.425001X-0.450001X1.425001X0.450001X0*%
%ADD13RoundRect,0.250000X0.350000X0.450000X-0.350000X0.450000X-0.350000X-0.450000X0.350000X-0.450000X0*%
%ADD14RoundRect,0.250000X0.337500X0.475000X-0.337500X0.475000X-0.337500X-0.475000X0.337500X-0.475000X0*%
%ADD15RoundRect,0.250000X-0.625000X0.400000X-0.625000X-0.400000X0.625000X-0.400000X0.625000X0.400000X0*%
%ADD16RoundRect,0.060000X-0.180000X0.790000X-0.180000X-0.790000X0.180000X-0.790000X0.180000X0.790000X0*%
%ADD17RoundRect,0.250000X-0.475000X0.337500X-0.475000X-0.337500X0.475000X-0.337500X0.475000X0.337500X0*%
%ADD18RoundRect,0.250000X-0.350000X-0.450000X0.350000X-0.450000X0.350000X0.450000X-0.350000X0.450000X0*%
%ADD19RoundRect,0.249999X1.425001X-0.450001X1.425001X0.450001X-1.425001X0.450001X-1.425001X-0.450001X0*%
%ADD20R,1.000000X0.300000*%
%ADD21R,2.090000X1.440000*%
%ADD22RoundRect,0.250000X0.625000X-0.400000X0.625000X0.400000X-0.625000X0.400000X-0.625000X-0.400000X0*%
%ADD23RoundRect,0.250001X0.899999X-0.612499X0.899999X0.612499X-0.899999X0.612499X-0.899999X-0.612499X0*%
G04 APERTURE END LIST*
D10*
%TO.C,R4*%
X51950000Y-46000000D03*
X55050000Y-46000000D03*
%TD*%
D11*
%TO.C,R2*%
X58050000Y-60750000D03*
X51950000Y-60750000D03*
%TD*%
D12*
%TO.C,R1*%
X38000000Y-32450000D03*
X38000000Y-38550000D03*
%TD*%
D13*
%TO.C,R9*%
X67090000Y-39500000D03*
X65090000Y-39500000D03*
%TD*%
D14*
%TO.C,C3*%
X91462500Y-30975000D03*
X89387500Y-30975000D03*
%TD*%
D10*
%TO.C,R11*%
X55450000Y-38500000D03*
X58550000Y-38500000D03*
%TD*%
D13*
%TO.C,R14*%
X99500000Y-52500000D03*
X97500000Y-52500000D03*
%TD*%
D15*
%TO.C,R10*%
X70590000Y-43700000D03*
X70590000Y-46800000D03*
%TD*%
D13*
%TO.C,R6*%
X76090000Y-39500000D03*
X74090000Y-39500000D03*
%TD*%
%TO.C,R13*%
X99500000Y-48500000D03*
X97500000Y-48500000D03*
%TD*%
D16*
%TO.C,U6*%
X90575000Y-35040000D03*
X91225000Y-35040000D03*
X91875000Y-35040000D03*
X92525000Y-35040000D03*
X93175000Y-35040000D03*
X93825000Y-35040000D03*
X94475000Y-35040000D03*
X95125000Y-35040000D03*
X95775000Y-35040000D03*
X96425000Y-35040000D03*
X96425000Y-41960000D03*
X95775000Y-41960000D03*
X95125000Y-41960000D03*
X94475000Y-41960000D03*
X93825000Y-41960000D03*
X93175000Y-41960000D03*
X92525000Y-41960000D03*
X91875000Y-41960000D03*
X91225000Y-41960000D03*
X90575000Y-41960000D03*
%TD*%
D17*
%TO.C,C2*%
X99000000Y-37500000D03*
X99000000Y-39575000D03*
%TD*%
D13*
%TO.C,R12*%
X99500000Y-57000000D03*
X97500000Y-57000000D03*
%TD*%
D18*
%TO.C,R7*%
X74090000Y-36000000D03*
X76090000Y-36000000D03*
%TD*%
D19*
%TO.C,R3*%
X46500000Y-54300000D03*
X46500000Y-48200000D03*
%TD*%
D13*
%TO.C,FB1*%
X95425000Y-30975000D03*
X93425000Y-30975000D03*
%TD*%
D20*
%TO.C,U5*%
X69500000Y-40160000D03*
X69500000Y-39500000D03*
X69500000Y-38840000D03*
X71680000Y-38840000D03*
X71680000Y-39500000D03*
X71680000Y-40160000D03*
%TD*%
D13*
%TO.C,R15*%
X99425000Y-30975000D03*
X97425000Y-30975000D03*
%TD*%
D14*
%TO.C,C4*%
X95462500Y-27475000D03*
X93387500Y-27475000D03*
%TD*%
D21*
%TO.C,U1*%
X42460000Y-38270000D03*
X42460000Y-35730000D03*
X51540000Y-35730000D03*
X51540000Y-38270000D03*
%TD*%
D22*
%TO.C,R5*%
X70590000Y-34550000D03*
X70590000Y-31450000D03*
%TD*%
D23*
%TO.C,C1*%
X51750000Y-54162500D03*
X51750000Y-49837500D03*
%TD*%
D13*
%TO.C,R8*%
X67090000Y-36000000D03*
X65090000Y-36000000D03*
%TD*%
M02*
