M48
; DRILL file {KiCad 8.0.9-1.fc41} date 2025-10-07T12:33:42-0700
; FORMAT={-:-/ absolute / inch / decimal}
; #@! TF.CreationDate,2025-10-07T12:33:42-07:00
; #@! TF.GenerationSoftware,Kicad,Pcbnew,8.0.9-1.fc41
; #@! TF.FileFunction,Plated,1,2,PTH
FMAT,2
INCH
; #@! TA.AperFunction,Plated,PTH,ViaDrill
T1C0.0118
; #@! TA.AperFunction,Plated,PTH,ViaDrill
T2C0.0197
; #@! TA.AperFunction,Plated,PTH,ComponentDrill
T3C0.0370
; #@! TA.AperFunction,Plated,PTH,ComponentDrill
T4C0.0394
; #@! TA.AperFunction,Plated,PTH,ComponentDrill
T5C0.0433
; #@! TA.AperFunction,Plated,PTH,ComponentDrill
T6C0.0469
; #@! TA.AperFunction,Plated,PTH,ComponentDrill
T7C0.0488
; #@! TA.AperFunction,Plated,PTH,ComponentDrill
T8C0.0512
; #@! TA.AperFunction,Plated,PTH,ComponentDrill
T9C0.0551
; #@! TA.AperFunction,Plated,PTH,ComponentDrill
T10C0.1051
; #@! TA.AperFunction,Plated,PTH,ComponentDrill
T11C0.1260
%
G90
G05
T1
X2.6181Y-1.6339
X2.6673Y-0.374
X2.8445Y-2.1654
X2.8937Y-1.2894
X2.9921Y-1.2697
X3.1496Y-1.2008
X3.5039Y-1.8012
X3.563Y-1.4764
X3.6024Y-1.5551
X3.7402Y-1.811
X3.7402Y-1.9882
X3.7402Y-2.1457
X3.7697Y-1.4469
X3.7697Y-1.5354
X3.8976Y-1.9882
X3.8976Y-2.1457
X3.9665Y-2.1457
X4.2126Y-0.6398
X4.2323Y-0.2067
T2
X1.3583Y-1.2402
X1.437Y-1.7224
X1.8504Y-1.3189
T3
X2.2122Y-1.9472
X2.2122Y-2.0472
X2.2122Y-2.1472
X2.5122Y-1.9472
X2.5122Y-2.0472
X2.5122Y-2.1472
T4
X3.3508Y-0.4386
X3.3508Y-0.5386
X3.3508Y-0.6386
X3.3508Y-0.7386
X3.3508Y-0.8386
X3.3508Y-0.9386
X3.3508Y-1.0386
X3.3508Y-1.1386
X3.3508Y-1.2386
X3.3508Y-1.3386
X3.3508Y-1.4386
X3.3508Y-1.5386
X3.3508Y-1.6386
X3.3508Y-1.7386
X3.3508Y-1.8386
X3.3508Y-1.9386
X3.3508Y-2.0386
X3.3508Y-2.1386
X3.3508Y-2.2386
X3.3508Y-2.3386
X4.0508Y-0.4386
X4.0508Y-0.5386
X4.0508Y-0.6386
X4.0508Y-0.7386
X4.0508Y-0.8386
X4.0508Y-0.9386
X4.0508Y-1.0386
X4.0508Y-1.1386
X4.0508Y-1.2386
X4.0508Y-1.3386
X4.0508Y-1.4386
X4.0508Y-1.5386
X4.0508Y-1.6386
X4.0508Y-1.7386
X4.0508Y-1.8386
X4.0508Y-1.9386
X4.0508Y-2.0386
X4.0508Y-2.1386
X4.0508Y-2.2386
X4.0508Y-2.3386
X4.3524Y-0.6988
X4.3524Y-0.7972
X4.3524Y-1.8701
X4.3524Y-1.9685
X4.3524Y-2.0669
T5
X0.6858Y-2.0866
X0.7858Y-1.9488
X0.8858Y-2.0866
T6
X0.6555Y-0.689
X0.6555Y-0.8858
X1.1555Y-0.689
X1.1555Y-0.8858
T7
X1.5059Y-0.5709
X1.5059Y-0.9941
X3.0217Y-0.6791
X3.0217Y-0.9941
T8
X4.5571Y-1.3386
X4.5571Y-1.5354
T9
X0.1756Y-0.1378
X0.1756Y-0.6102
X0.1756Y-1.0827
X0.1756Y-1.5551
X0.3756Y-0.1378
X0.3756Y-0.6102
X0.3756Y-1.0827
X0.3756Y-1.5551
T10
X0.2858Y-2.2441
X1.2858Y-2.2441
T11
X0.9055Y-0.2264
X1.7717Y-2.4016
X4.498Y-0.2264
X4.498Y-2.4016
M30
