%TF.GenerationSoftware,KiCad,Pcbnew,8.0.9-1.fc41*%
%TF.CreationDate,2025-10-07T12:33:13-07:00*%
%TF.ProjectId,silvia_pid_board,73696c76-6961-45f7-9069-645f626f6172,rev?*%
%TF.SameCoordinates,Original*%
%TF.FileFunction,Copper,L1,Top*%
%TF.FilePolarity,Positive*%
%FSLAX46Y46*%
G04 Gerber Fmt 4.6, Leading zero omitted, Abs format (unit mm)*
G04 Created by KiCad (PCBNEW 8.0.9-1.fc41) date 2025-10-07 12:33:13*
%MOMM*%
%LPD*%
G01*
G04 APERTURE LIST*
%TA.AperFunction,ComponentPad*%
%ADD10C,2.100000*%
%TD*%
%TA.AperFunction,ComponentPad*%
%ADD11C,3.600000*%
%TD*%
%TA.AperFunction,ConnectorPad*%
%ADD12C,6.400000*%
%TD*%
%TA.AperFunction,ComponentPad*%
%ADD13C,1.950000*%
%TD*%
%TA.AperFunction,ComponentPad*%
%ADD14R,1.508000X1.508000*%
%TD*%
%TA.AperFunction,ComponentPad*%
%ADD15C,1.860000*%
%TD*%
%TA.AperFunction,ComponentPad*%
%ADD16C,1.508000*%
%TD*%
%TA.AperFunction,ComponentPad*%
%ADD17C,4.000000*%
%TD*%
%TA.AperFunction,ComponentPad*%
%ADD18O,1.905000X2.000000*%
%TD*%
%TA.AperFunction,ComponentPad*%
%ADD19C,2.500000*%
%TD*%
%TA.AperFunction,ComponentPad*%
%ADD20C,1.447800*%
%TD*%
%TA.AperFunction,ViaPad*%
%ADD21C,1.000000*%
%TD*%
%TA.AperFunction,ViaPad*%
%ADD22C,0.600000*%
%TD*%
%TA.AperFunction,Conductor*%
%ADD23C,1.000000*%
%TD*%
%TA.AperFunction,Conductor*%
%ADD24C,0.500000*%
%TD*%
%TA.AperFunction,Conductor*%
%ADD25C,0.200000*%
%TD*%
%TA.AperFunction,Conductor*%
%ADD26C,6.000000*%
%TD*%
G04 APERTURE END LIST*
D10*
%TO.P,J3,1*%
%TO.N,NEUTRAL*%
X4460000Y-3500000D03*
%TO.P,J3,2*%
X9540000Y-3500000D03*
%TD*%
%TO.P,J1,1*%
%TO.N,Net-(J1-Pad1)*%
X4460000Y-27500000D03*
%TO.P,J1,2*%
X9540000Y-27500000D03*
%TD*%
D11*
%TO.P,H4,1*%
%TO.N,N/C*%
X45000000Y-61000000D03*
D12*
X45000000Y-61000000D03*
%TD*%
D11*
%TO.P,H3,1*%
%TO.N,N/C*%
X23000000Y-5750000D03*
D12*
X23000000Y-5750000D03*
%TD*%
D13*
%TO.P,J7,1*%
%TO.N,Net-(U6-FORCE-)*%
X115750000Y-39000000D03*
%TO.P,J7,2*%
%TO.N,Net-(U6-FORCE+)*%
X115750000Y-34000000D03*
%TD*%
D11*
%TO.P,H1,1*%
%TO.N,N/C*%
X114250000Y-5750000D03*
D12*
X114250000Y-5750000D03*
%TD*%
D14*
%TO.P,U4,3V3,3V3*%
%TO.N,+3.3V*%
X102890000Y-21300000D03*
%TO.P,U4,3V3_EN,3V3_EN*%
%TO.N,unconnected-(U4-Pad3V3_EN)*%
X102890000Y-18760000D03*
%TO.P,U4,ADC_VREF,ADC_VREF*%
%TO.N,unconnected-(U4-PadADC_VREF)*%
X102890000Y-23840000D03*
%TO.P,U4,AGND,AGND*%
%TO.N,GND*%
X102890000Y-28920000D03*
%TO.P,U4,GND,GND*%
X102890000Y-16220000D03*
%TO.P,U4,GND2,GND2*%
%TO.N,unconnected-(U4-PadGND2)*%
X102890000Y-41620000D03*
%TO.P,U4,GND3,GND3*%
%TO.N,GND*%
X102890000Y-54320000D03*
%TO.P,U4,GND4,GND4*%
X85110000Y-16220000D03*
%TO.P,U4,GND5,GND5*%
X85110000Y-28920000D03*
%TO.P,U4,GND6,GND6*%
X85110000Y-41620000D03*
%TO.P,U4,GND7,GND7*%
X85110000Y-54320000D03*
%TO.P,U4,GP0,GP0*%
%TO.N,unconnected-(U4-PadGP0)*%
X85110000Y-11140000D03*
%TO.P,U4,GP1,GP1*%
%TO.N,unconnected-(U4-PadGP1)*%
X85110000Y-13680000D03*
%TO.P,U4,GP2,GP2*%
%TO.N,LINE_ZEROCROSS_SENSE*%
X85110000Y-18760000D03*
%TO.P,U4,GP3,GP3*%
%TO.N,LED_CTRL*%
X85110000Y-21300000D03*
%TO.P,U4,GP4,GP4*%
%TO.N,unconnected-(U4-PadGP4)*%
X85110000Y-23840000D03*
%TO.P,U4,GP5,GP5*%
%TO.N,unconnected-(U4-PadGP5)*%
X85110000Y-26380000D03*
%TO.P,U4,GP6,GP6*%
%TO.N,unconnected-(U4-PadGP6)*%
X85110000Y-31460000D03*
%TO.P,U4,GP7,GP7*%
%TO.N,unconnected-(U4-PadGP7)*%
X85110000Y-34000000D03*
%TO.P,U4,GP8,GP8*%
%TO.N,unconnected-(U4-PadGP8)*%
X85110000Y-36540000D03*
%TO.P,U4,GP9,GP9*%
%TO.N,unconnected-(U4-PadGP9)*%
X85110000Y-39080000D03*
%TO.P,U4,GP10,GP10*%
%TO.N,unconnected-(U4-PadGP10)*%
X85110000Y-44160000D03*
%TO.P,U4,GP11,GP11*%
%TO.N,unconnected-(U4-PadGP11)*%
X85110000Y-46700000D03*
%TO.P,U4,GP12,GP12*%
%TO.N,DBG_TX*%
X85110000Y-49240000D03*
%TO.P,U4,GP13,GP13*%
%TO.N,DBG_RX*%
X85110000Y-51780000D03*
%TO.P,U4,GP14,GP14*%
%TO.N,unconnected-(U4-PadGP14)*%
X85110000Y-56860000D03*
%TO.P,U4,GP15,GP15*%
%TO.N,HEATER_CTRL*%
X85110000Y-59400000D03*
%TO.P,U4,GP16,GP16*%
%TO.N,SDO*%
X102890000Y-59400000D03*
%TO.P,U4,GP17,GP17*%
%TO.N,CS*%
X102890000Y-56860000D03*
%TO.P,U4,GP18,GP18*%
%TO.N,SCLK*%
X102890000Y-51780000D03*
%TO.P,U4,GP19,GP19*%
%TO.N,SDI*%
X102890000Y-49240000D03*
%TO.P,U4,GP20,GP20*%
%TO.N,DRDY*%
X102890000Y-46700000D03*
%TO.P,U4,GP21,GP21*%
%TO.N,unconnected-(U4-PadGP21)*%
X102890000Y-44160000D03*
%TO.P,U4,GP22,GP22*%
%TO.N,unconnected-(U4-PadGP22)*%
X102890000Y-39080000D03*
%TO.P,U4,GP26_A0,GP26_A0*%
%TO.N,unconnected-(U4-PadGP26_A0)*%
X102890000Y-34000000D03*
%TO.P,U4,GP27_A1,GP27_A1*%
%TO.N,unconnected-(U4-PadGP27_A1)*%
X102890000Y-31460000D03*
%TO.P,U4,GP28_A2,GP28_A2*%
%TO.N,unconnected-(U4-PadGP28_A2)*%
X102890000Y-26380000D03*
%TO.P,U4,RUN,RUN*%
%TO.N,unconnected-(U4-PadRUN)*%
X102890000Y-36540000D03*
%TO.P,U4,VBUS,VBUS*%
%TO.N,unconnected-(U4-PadVBUS)*%
X102890000Y-11140000D03*
%TO.P,U4,VSYS,VSYS*%
%TO.N,+5V*%
X102890000Y-13680000D03*
%TD*%
D15*
%TO.P,U2,AC/L,AC(L)*%
%TO.N,LINE*%
X38250000Y-25250000D03*
%TO.P,U2,AC/N,AC(N)*%
%TO.N,NEUTRAL*%
X38250000Y-14500000D03*
%TO.P,U2,VNEG,-V*%
%TO.N,GND*%
X76750000Y-25250000D03*
%TO.P,U2,VPOS,+V*%
%TO.N,+5V*%
X76750000Y-17250000D03*
%TD*%
D14*
%TO.P,J5,1,1*%
%TO.N,Net-(J5-Pad1)*%
X110550000Y-20250000D03*
D16*
%TO.P,J5,2,2*%
%TO.N,+5V*%
X110550000Y-17750000D03*
%TD*%
D14*
%TO.P,J6,1,1*%
%TO.N,DBG_TX*%
X110550000Y-52500000D03*
D16*
%TO.P,J6,2,2*%
%TO.N,DBG_RX*%
X110550000Y-50000000D03*
%TO.P,J6,3,3*%
%TO.N,GND*%
X110550000Y-47500000D03*
%TD*%
D10*
%TO.P,J4,1*%
%TO.N,Net-(D1-A1)*%
X4460000Y-39500000D03*
%TO.P,J4,2*%
X9540000Y-39500000D03*
%TD*%
D17*
%TO.P,D1,*%
%TO.N,*%
X32660000Y-57000000D03*
X7260000Y-57000000D03*
D18*
%TO.P,D1,1,A1*%
%TO.N,Net-(D1-A1)*%
X22500000Y-53000000D03*
%TO.P,D1,2,A2*%
%TO.N,LINE*%
X19960000Y-49500000D03*
%TO.P,D1,3,G*%
%TO.N,Net-(D1-G)*%
X17420000Y-53000000D03*
%TD*%
D19*
%TO.P,F1,1,1*%
%TO.N,Net-(F1-Pad1)*%
X16650000Y-17500000D03*
%TO.P,F1,2,2*%
X16650000Y-22500000D03*
%TO.P,F1,3,3*%
%TO.N,LINE*%
X29350000Y-17500000D03*
%TO.P,F1,4,4*%
X29350000Y-22500000D03*
%TD*%
D11*
%TO.P,H2,1*%
%TO.N,N/C*%
X114250000Y-61000000D03*
D12*
X114250000Y-61000000D03*
%TD*%
D20*
%TO.P,U3,1,ANODE*%
%TO.N,+5V*%
X63810000Y-54540000D03*
%TO.P,U3,2,CATHODE*%
%TO.N,HEATER_CTRL_OUT*%
X63810000Y-52000000D03*
%TO.P,U3,3,NC*%
%TO.N,unconnected-(U3-NC-Pad3)*%
X63810000Y-49460000D03*
%TO.P,U3,4,MAINTERM*%
%TO.N,Net-(D1-G)*%
X56190000Y-49460000D03*
%TO.P,U3,5,NC*%
%TO.N,unconnected-(U3-NC-Pad5)*%
X56190000Y-52000000D03*
%TO.P,U3,6,MAINTERM*%
%TO.N,Net-(R2-Pad1)*%
X56190000Y-54540000D03*
%TD*%
D10*
%TO.P,J2,1*%
%TO.N,Net-(F1-Pad1)*%
X4460000Y-15500000D03*
%TO.P,J2,2*%
X9540000Y-15500000D03*
%TD*%
D21*
%TO.N,NEUTRAL*%
X47000000Y-33500000D03*
D22*
%TO.N,GND*%
X95750000Y-36750000D03*
X67750000Y-9500000D03*
X89000000Y-45750000D03*
X107500000Y-5250000D03*
X107000000Y-16250000D03*
X95750000Y-39000000D03*
X72250000Y-55000000D03*
X100750000Y-54500000D03*
X66500000Y-41500000D03*
X73500000Y-32750000D03*
%TO.N,+3.3V*%
X95000000Y-46000000D03*
X91500000Y-39500000D03*
%TO.N,LED_CTRL*%
X76000000Y-32250000D03*
%TO.N,SCLK*%
X99000000Y-50500000D03*
X95000000Y-50500000D03*
%TO.N,CS*%
X95000000Y-54500000D03*
X99000000Y-54500000D03*
%TO.N,DRDY*%
X90500000Y-37500000D03*
D21*
%TO.N,Net-(J1-Pad1)*%
X34500000Y-31500000D03*
%TO.N,Net-(D1-A1)*%
X36500000Y-43750000D03*
D22*
%TO.N,Net-(J5-Pad1)*%
X80000000Y-30500000D03*
%TD*%
D23*
%TO.N,NEUTRAL*%
X29250000Y-8250000D02*
X33750000Y-8250000D01*
X47000000Y-33500000D02*
X47000000Y-17000000D01*
X12500000Y-3500000D02*
X20750000Y-11750000D01*
X38250000Y-12750000D02*
X38250000Y-14500000D01*
X20750000Y-11750000D02*
X25750000Y-11750000D01*
X4460000Y-3500000D02*
X9540000Y-3500000D01*
X33750000Y-8250000D02*
X38250000Y-12750000D01*
X44500000Y-14500000D02*
X38250000Y-14500000D01*
X47000000Y-17000000D02*
X44500000Y-14500000D01*
X25750000Y-11750000D02*
X29250000Y-8250000D01*
X9540000Y-3500000D02*
X12500000Y-3500000D01*
D24*
%TO.N,+5V*%
X76750000Y-17250000D02*
X76750000Y-9500000D01*
D25*
X67500000Y-50850000D02*
X63810000Y-54540000D01*
D24*
X99430000Y-13680000D02*
X102890000Y-13680000D01*
X94000000Y-8250000D02*
X99430000Y-13680000D01*
D25*
X67500000Y-26500000D02*
X76750000Y-17250000D01*
D24*
X78000000Y-8250000D02*
X94000000Y-8250000D01*
D25*
X67500000Y-26500000D02*
X67500000Y-50850000D01*
X102890000Y-13680000D02*
X106730000Y-13680000D01*
D24*
X76750000Y-9500000D02*
X78000000Y-8250000D01*
D25*
X106730000Y-13680000D02*
X110800000Y-17750000D01*
%TO.N,+3.3V*%
X95000000Y-46000000D02*
X95000000Y-43000000D01*
X95000000Y-43000000D02*
X91500000Y-39500000D01*
%TO.N,LED_CTRL*%
X85110000Y-21300000D02*
X83700000Y-21300000D01*
X76000000Y-31250000D02*
X76000000Y-32250000D01*
X80500000Y-24500000D02*
X80500000Y-26000000D01*
X83700000Y-21300000D02*
X80500000Y-24500000D01*
X76000000Y-30500000D02*
X76000000Y-31250000D01*
X80500000Y-26000000D02*
X76000000Y-30500000D01*
%TO.N,SCLK*%
X95000000Y-50500000D02*
X99000000Y-50500000D01*
%TO.N,CS*%
X95000000Y-54500000D02*
X99000000Y-54500000D01*
%TO.N,DBG_RX*%
X109000000Y-50500000D02*
X109500000Y-50000000D01*
X88500000Y-65000000D02*
X107000000Y-65000000D01*
X85110000Y-51780000D02*
X86780000Y-51780000D01*
X86780000Y-51780000D02*
X87500000Y-52500000D01*
X109500000Y-50000000D02*
X110800000Y-50000000D01*
X87500000Y-52500000D02*
X87500000Y-64000000D01*
X109000000Y-63000000D02*
X109000000Y-50500000D01*
X87500000Y-64000000D02*
X88500000Y-65000000D01*
X107000000Y-65000000D02*
X109000000Y-63000000D01*
%TO.N,DRDY*%
X99700000Y-46700000D02*
X90500000Y-37500000D01*
X102890000Y-46700000D02*
X99700000Y-46700000D01*
D23*
%TO.N,Net-(J1-Pad1)*%
X26775000Y-31500000D02*
X22775000Y-27500000D01*
X22775000Y-27500000D02*
X9540000Y-27500000D01*
X34500000Y-31500000D02*
X26775000Y-31500000D01*
X4460000Y-27500000D02*
X9540000Y-27500000D01*
%TO.N,Net-(R2-Pad1)*%
X56225000Y-54575000D02*
X56190000Y-54540000D01*
D26*
%TO.N,Net-(D1-A1)*%
X24000000Y-39500000D02*
X30000000Y-45500000D01*
X4460000Y-39500000D02*
X9540000Y-39500000D01*
X30000000Y-51000000D02*
X26797003Y-54202997D01*
X30000000Y-45500000D02*
X30000000Y-51000000D01*
D23*
X36500000Y-43750000D02*
X31750000Y-43750000D01*
D26*
X26797003Y-54202997D02*
X23960000Y-54202997D01*
X9540000Y-39500000D02*
X24000000Y-39500000D01*
D23*
%TO.N,Net-(D1-G)*%
X19250000Y-62500000D02*
X34750000Y-62500000D01*
X34750000Y-62500000D02*
X47790000Y-49460000D01*
X17420000Y-60670000D02*
X19250000Y-62500000D01*
X17420000Y-53000000D02*
X17420000Y-60670000D01*
X47790000Y-49460000D02*
X56190000Y-49460000D01*
D25*
%TO.N,Net-(J5-Pad1)*%
X82000000Y-28500000D02*
X82000000Y-26788177D01*
X82000000Y-26788177D02*
X83700662Y-25087515D01*
X105500000Y-17500000D02*
X108250000Y-20250000D01*
X108250000Y-20250000D02*
X110800000Y-20250000D01*
X83700662Y-25087515D02*
X86369888Y-25087515D01*
X80000000Y-30500000D02*
X82000000Y-28500000D01*
X93957403Y-17500000D02*
X105500000Y-17500000D01*
X86369888Y-25087515D02*
X93957403Y-17500000D01*
%TD*%
%TA.AperFunction,Conductor*%
%TO.N,GND*%
G36*
X106496942Y-14300185D02*
G01*
X106517584Y-14316819D01*
X109354044Y-17153279D01*
X109387529Y-17214602D01*
X109382545Y-17284294D01*
X109378746Y-17293363D01*
X109366654Y-17319293D01*
X109309839Y-17531324D01*
X109309838Y-17531331D01*
X109290708Y-17749997D01*
X109290708Y-17750002D01*
X109308915Y-17958123D01*
X109309839Y-17968674D01*
X109366653Y-18180703D01*
X109366654Y-18180706D01*
X109366655Y-18180708D01*
X109459419Y-18379642D01*
X109459423Y-18379650D01*
X109585322Y-18559452D01*
X109585327Y-18559458D01*
X109740541Y-18714672D01*
X109740547Y-18714677D01*
X109819450Y-18769925D01*
X109863075Y-18824501D01*
X109870269Y-18894000D01*
X109838747Y-18956355D01*
X109778517Y-18991769D01*
X109751426Y-18995120D01*
X109751429Y-18995146D01*
X109751426Y-18995146D01*
X109751436Y-18995324D01*
X109748524Y-18995479D01*
X109748362Y-18995500D01*
X109748147Y-18995500D01*
X109748123Y-18995501D01*
X109688516Y-19001908D01*
X109553671Y-19052202D01*
X109553664Y-19052206D01*
X109438455Y-19138452D01*
X109438452Y-19138455D01*
X109352206Y-19253664D01*
X109352202Y-19253671D01*
X109301908Y-19388517D01*
X109295501Y-19448116D01*
X109295501Y-19448123D01*
X109295500Y-19448135D01*
X109295500Y-19525500D01*
X109275815Y-19592539D01*
X109223011Y-19638294D01*
X109171500Y-19649500D01*
X108550097Y-19649500D01*
X108483058Y-19629815D01*
X108462416Y-19613181D01*
X105987590Y-17138355D01*
X105987588Y-17138352D01*
X105868717Y-17019481D01*
X105868716Y-17019480D01*
X105781904Y-16969360D01*
X105781904Y-16969359D01*
X105781900Y-16969358D01*
X105731785Y-16940423D01*
X105579057Y-16899499D01*
X105420943Y-16899499D01*
X105413347Y-16899499D01*
X105413331Y-16899500D01*
X104268000Y-16899500D01*
X104200961Y-16879815D01*
X104155206Y-16827011D01*
X104144000Y-16775500D01*
X104144000Y-16470000D01*
X103323012Y-16470000D01*
X103355925Y-16412993D01*
X103390000Y-16285826D01*
X103390000Y-16154174D01*
X103355925Y-16027007D01*
X103323012Y-15970000D01*
X104144000Y-15970000D01*
X104144000Y-15418172D01*
X104143999Y-15418155D01*
X104137598Y-15358627D01*
X104137596Y-15358620D01*
X104087354Y-15223913D01*
X104087350Y-15223906D01*
X104001190Y-15108812D01*
X104001187Y-15108809D01*
X103922065Y-15049578D01*
X103880194Y-14993644D01*
X103875210Y-14923953D01*
X103908696Y-14862630D01*
X103922064Y-14851046D01*
X104001546Y-14791546D01*
X104087796Y-14676331D01*
X104138091Y-14541483D01*
X104144500Y-14481873D01*
X104144500Y-14404500D01*
X104164185Y-14337461D01*
X104216989Y-14291706D01*
X104268500Y-14280500D01*
X106429903Y-14280500D01*
X106496942Y-14300185D01*
G37*
%TD.AperFunction*%
%TA.AperFunction,Conductor*%
G36*
X119442539Y-520185D02*
G01*
X119488294Y-572989D01*
X119499500Y-624500D01*
X119499500Y-66375500D01*
X119479815Y-66442539D01*
X119427011Y-66488294D01*
X119375500Y-66499500D01*
X60124000Y-66499500D01*
X60056961Y-66479815D01*
X60011206Y-66427011D01*
X60000000Y-66375500D01*
X60000000Y-49460000D01*
X62580923Y-49460000D01*
X62590484Y-49569291D01*
X62599595Y-49673425D01*
X62599595Y-49673429D01*
X62655042Y-49880361D01*
X62655044Y-49880365D01*
X62655045Y-49880369D01*
X62663966Y-49899500D01*
X62745587Y-50074538D01*
X62745588Y-50074539D01*
X62868472Y-50250035D01*
X63019965Y-50401528D01*
X63195461Y-50524412D01*
X63319396Y-50582204D01*
X63394538Y-50617243D01*
X63393554Y-50619351D01*
X63441845Y-50654914D01*
X63466774Y-50720185D01*
X63452458Y-50788572D01*
X63403441Y-50838363D01*
X63394411Y-50842486D01*
X63394538Y-50842757D01*
X63195462Y-50935587D01*
X63195460Y-50935588D01*
X63019963Y-51058472D01*
X62868472Y-51209963D01*
X62745588Y-51385460D01*
X62745587Y-51385462D01*
X62655046Y-51579629D01*
X62655042Y-51579638D01*
X62599595Y-51786570D01*
X62599595Y-51786574D01*
X62580923Y-51999997D01*
X62580923Y-52000002D01*
X62599595Y-52213425D01*
X62599595Y-52213429D01*
X62655042Y-52420361D01*
X62655044Y-52420365D01*
X62655045Y-52420369D01*
X62667024Y-52446058D01*
X62745587Y-52614538D01*
X62745588Y-52614539D01*
X62868472Y-52790035D01*
X63019965Y-52941528D01*
X63156053Y-53036818D01*
X63195461Y-53064412D01*
X63394538Y-53157243D01*
X63393554Y-53159351D01*
X63441845Y-53194914D01*
X63466774Y-53260185D01*
X63452458Y-53328572D01*
X63403441Y-53378363D01*
X63394411Y-53382486D01*
X63394538Y-53382757D01*
X63195462Y-53475587D01*
X63195460Y-53475588D01*
X63019963Y-53598472D01*
X62868472Y-53749963D01*
X62745588Y-53925460D01*
X62745587Y-53925462D01*
X62655046Y-54119629D01*
X62655042Y-54119638D01*
X62599595Y-54326570D01*
X62599595Y-54326574D01*
X62580923Y-54539997D01*
X62580923Y-54540002D01*
X62599595Y-54753425D01*
X62599595Y-54753429D01*
X62655042Y-54960361D01*
X62655044Y-54960365D01*
X62655045Y-54960369D01*
X62674580Y-55002262D01*
X62745587Y-55154538D01*
X62745588Y-55154539D01*
X62868472Y-55330035D01*
X63019965Y-55481528D01*
X63195461Y-55604412D01*
X63389631Y-55694955D01*
X63596573Y-55750405D01*
X63775658Y-55766072D01*
X63809998Y-55769077D01*
X63810000Y-55769077D01*
X63810002Y-55769077D01*
X63837664Y-55766656D01*
X64023427Y-55750405D01*
X64230369Y-55694955D01*
X64424539Y-55604412D01*
X64600035Y-55481528D01*
X64751528Y-55330035D01*
X64874412Y-55154539D01*
X64964955Y-54960369D01*
X65020405Y-54753427D01*
X65039077Y-54540000D01*
X65020405Y-54326573D01*
X65007712Y-54279201D01*
X65009375Y-54209351D01*
X65039804Y-54159429D01*
X67858506Y-51340728D01*
X67858511Y-51340724D01*
X67868714Y-51330520D01*
X67868716Y-51330520D01*
X67980520Y-51218716D01*
X68048771Y-51100501D01*
X68059577Y-51081785D01*
X68100501Y-50929057D01*
X68100501Y-50770943D01*
X68100501Y-50763348D01*
X68100500Y-50763330D01*
X68100500Y-26800096D01*
X68120185Y-26733057D01*
X68136814Y-26712420D01*
X69599240Y-25249994D01*
X75315099Y-25249994D01*
X75315099Y-25250005D01*
X75334667Y-25486169D01*
X75334669Y-25486180D01*
X75392845Y-25715912D01*
X75488040Y-25932933D01*
X75577138Y-26069308D01*
X76171919Y-25474527D01*
X76200563Y-25543680D01*
X76268414Y-25645227D01*
X76354773Y-25731586D01*
X76456320Y-25799437D01*
X76525471Y-25828080D01*
X75929823Y-26423728D01*
X75965186Y-26451251D01*
X76173605Y-26564043D01*
X76173610Y-26564045D01*
X76397750Y-26640992D01*
X76631508Y-26680000D01*
X76868492Y-26680000D01*
X77102249Y-26640992D01*
X77326389Y-26564045D01*
X77326394Y-26564043D01*
X77534814Y-26451251D01*
X77570175Y-26423728D01*
X76974527Y-25828080D01*
X77043680Y-25799437D01*
X77145227Y-25731586D01*
X77231586Y-25645227D01*
X77299437Y-25543680D01*
X77328080Y-25474527D01*
X77922860Y-26069308D01*
X78011955Y-25932940D01*
X78011960Y-25932932D01*
X78107154Y-25715912D01*
X78165330Y-25486180D01*
X78165332Y-25486169D01*
X78184901Y-25250005D01*
X78184901Y-25249994D01*
X78165332Y-25013830D01*
X78165330Y-25013819D01*
X78107154Y-24784087D01*
X78011957Y-24567061D01*
X77922860Y-24430690D01*
X77328080Y-25025471D01*
X77299437Y-24956320D01*
X77231586Y-24854773D01*
X77145227Y-24768414D01*
X77043680Y-24700563D01*
X76974526Y-24671918D01*
X77570176Y-24076270D01*
X77534813Y-24048748D01*
X77326394Y-23935956D01*
X77326389Y-23935954D01*
X77102249Y-23859007D01*
X76868492Y-23820000D01*
X76631508Y-23820000D01*
X76397750Y-23859007D01*
X76173610Y-23935954D01*
X76173605Y-23935956D01*
X75965179Y-24048752D01*
X75929823Y-24076269D01*
X75929823Y-24076271D01*
X76525472Y-24671919D01*
X76456320Y-24700563D01*
X76354773Y-24768414D01*
X76268414Y-24854773D01*
X76200563Y-24956320D01*
X76171919Y-25025472D01*
X75577138Y-24430690D01*
X75488041Y-24567063D01*
X75392845Y-24784087D01*
X75334669Y-25013819D01*
X75334667Y-25013830D01*
X75315099Y-25249994D01*
X69599240Y-25249994D01*
X76201548Y-18647685D01*
X76262869Y-18614202D01*
X76329488Y-18618086D01*
X76397629Y-18641480D01*
X76631465Y-18680500D01*
X76868535Y-18680500D01*
X77102371Y-18641480D01*
X77326595Y-18564504D01*
X77535091Y-18451671D01*
X77722172Y-18306060D01*
X77882735Y-18131643D01*
X78012399Y-17933176D01*
X78107629Y-17716075D01*
X78165826Y-17486260D01*
X78179661Y-17319293D01*
X78185403Y-17250005D01*
X78185403Y-17249994D01*
X78171430Y-17081372D01*
X78165826Y-17013740D01*
X78107629Y-16783925D01*
X78103933Y-16775500D01*
X78012399Y-16566824D01*
X77882734Y-16368355D01*
X77722175Y-16193943D01*
X77722165Y-16193934D01*
X77548338Y-16058639D01*
X77507525Y-16001929D01*
X77500500Y-15960786D01*
X77500500Y-9862230D01*
X77520185Y-9795191D01*
X77536819Y-9774549D01*
X78274549Y-9036819D01*
X78335872Y-9003334D01*
X78362230Y-9000500D01*
X93637770Y-9000500D01*
X93704809Y-9020185D01*
X93725451Y-9036819D01*
X98847049Y-14158416D01*
X98951584Y-14262951D01*
X98951587Y-14262953D01*
X98951588Y-14262954D01*
X99074503Y-14345083D01*
X99074506Y-14345085D01*
X99131079Y-14368518D01*
X99131080Y-14368518D01*
X99211088Y-14401659D01*
X99327241Y-14424763D01*
X99346468Y-14428587D01*
X99356081Y-14430500D01*
X99356082Y-14430500D01*
X99356083Y-14430500D01*
X99503918Y-14430500D01*
X101518594Y-14430500D01*
X101585633Y-14450185D01*
X101631388Y-14502989D01*
X101639891Y-14533986D01*
X101640124Y-14533932D01*
X101641663Y-14540444D01*
X101641883Y-14541250D01*
X101641900Y-14541406D01*
X101641909Y-14541486D01*
X101692202Y-14676328D01*
X101692206Y-14676335D01*
X101778452Y-14791544D01*
X101778453Y-14791544D01*
X101778454Y-14791546D01*
X101818778Y-14821732D01*
X101857935Y-14851046D01*
X101899805Y-14906980D01*
X101904789Y-14976672D01*
X101871303Y-15037994D01*
X101857935Y-15049578D01*
X101778809Y-15108812D01*
X101692649Y-15223906D01*
X101692645Y-15223913D01*
X101642403Y-15358620D01*
X101642401Y-15358627D01*
X101636000Y-15418155D01*
X101636000Y-15970000D01*
X102456988Y-15970000D01*
X102424075Y-16027007D01*
X102390000Y-16154174D01*
X102390000Y-16285826D01*
X102424075Y-16412993D01*
X102456988Y-16470000D01*
X101636000Y-16470000D01*
X101636000Y-16775500D01*
X101616315Y-16842539D01*
X101563511Y-16888294D01*
X101512000Y-16899500D01*
X94044073Y-16899500D01*
X94044057Y-16899499D01*
X94036461Y-16899499D01*
X93878346Y-16899499D01*
X93801982Y-16919961D01*
X93725617Y-16940423D01*
X93725612Y-16940426D01*
X93588693Y-17019475D01*
X93588685Y-17019481D01*
X86576180Y-24031987D01*
X86514857Y-24065472D01*
X86445165Y-24060488D01*
X86389232Y-24018616D01*
X86364815Y-23953152D01*
X86364499Y-23944306D01*
X86364499Y-23038129D01*
X86364498Y-23038123D01*
X86364497Y-23038116D01*
X86358091Y-22978517D01*
X86307796Y-22843669D01*
X86307795Y-22843668D01*
X86307793Y-22843664D01*
X86221547Y-22728455D01*
X86221544Y-22728452D01*
X86142482Y-22669266D01*
X86100611Y-22613333D01*
X86095627Y-22543641D01*
X86129113Y-22482318D01*
X86142482Y-22470734D01*
X86187415Y-22437096D01*
X86221546Y-22411546D01*
X86307796Y-22296331D01*
X86358091Y-22161483D01*
X86364500Y-22101873D01*
X86364499Y-20498128D01*
X86358091Y-20438517D01*
X86307796Y-20303669D01*
X86307795Y-20303668D01*
X86307793Y-20303664D01*
X86221547Y-20188455D01*
X86221544Y-20188452D01*
X86142482Y-20129266D01*
X86100611Y-20073333D01*
X86095627Y-20003641D01*
X86129113Y-19942318D01*
X86142482Y-19930734D01*
X86187415Y-19897096D01*
X86221546Y-19871546D01*
X86307796Y-19756331D01*
X86358091Y-19621483D01*
X86364500Y-19561873D01*
X86364499Y-17958128D01*
X86358091Y-17898517D01*
X86307796Y-17763669D01*
X86307795Y-17763668D01*
X86307793Y-17763664D01*
X86221547Y-17648455D01*
X86142064Y-17588953D01*
X86100194Y-17533019D01*
X86095210Y-17463327D01*
X86128696Y-17402004D01*
X86142065Y-17390420D01*
X86221191Y-17331186D01*
X86307350Y-17216093D01*
X86307354Y-17216086D01*
X86357596Y-17081379D01*
X86357598Y-17081372D01*
X86363999Y-17021844D01*
X86364000Y-17021827D01*
X86364000Y-16470000D01*
X85543012Y-16470000D01*
X85575925Y-16412993D01*
X85610000Y-16285826D01*
X85610000Y-16154174D01*
X85575925Y-16027007D01*
X85543012Y-15970000D01*
X86364000Y-15970000D01*
X86364000Y-15418172D01*
X86363999Y-15418155D01*
X86357598Y-15358627D01*
X86357596Y-15358620D01*
X86307354Y-15223913D01*
X86307350Y-15223906D01*
X86221190Y-15108812D01*
X86221187Y-15108809D01*
X86142065Y-15049578D01*
X86100194Y-14993644D01*
X86095210Y-14923953D01*
X86128696Y-14862630D01*
X86142064Y-14851046D01*
X86221546Y-14791546D01*
X86307796Y-14676331D01*
X86358091Y-14541483D01*
X86364500Y-14481873D01*
X86364499Y-12878128D01*
X86358091Y-12818517D01*
X86307796Y-12683669D01*
X86307795Y-12683668D01*
X86307793Y-12683664D01*
X86221547Y-12568455D01*
X86221544Y-12568452D01*
X86142482Y-12509266D01*
X86100611Y-12453333D01*
X86095627Y-12383641D01*
X86129113Y-12322318D01*
X86142482Y-12310734D01*
X86187415Y-12277096D01*
X86221546Y-12251546D01*
X86307796Y-12136331D01*
X86358091Y-12001483D01*
X86364500Y-11941873D01*
X86364499Y-10338128D01*
X86358091Y-10278517D01*
X86307796Y-10143669D01*
X86307795Y-10143668D01*
X86307793Y-10143664D01*
X86221547Y-10028455D01*
X86221544Y-10028452D01*
X86106335Y-9942206D01*
X86106328Y-9942202D01*
X85971482Y-9891908D01*
X85971483Y-9891908D01*
X85911883Y-9885501D01*
X85911881Y-9885500D01*
X85911873Y-9885500D01*
X85911864Y-9885500D01*
X84308129Y-9885500D01*
X84308123Y-9885501D01*
X84248516Y-9891908D01*
X84113671Y-9942202D01*
X84113664Y-9942206D01*
X83998455Y-10028452D01*
X83998452Y-10028455D01*
X83912206Y-10143664D01*
X83912202Y-10143671D01*
X83861908Y-10278517D01*
X83855501Y-10338116D01*
X83855501Y-10338123D01*
X83855500Y-10338135D01*
X83855500Y-11941870D01*
X83855501Y-11941876D01*
X83861908Y-12001483D01*
X83912202Y-12136328D01*
X83912206Y-12136335D01*
X83998452Y-12251544D01*
X83998453Y-12251544D01*
X83998454Y-12251546D01*
X84032799Y-12277257D01*
X84077518Y-12310734D01*
X84119388Y-12366668D01*
X84124372Y-12436360D01*
X84090886Y-12497683D01*
X84077518Y-12509266D01*
X83998452Y-12568455D01*
X83912206Y-12683664D01*
X83912202Y-12683671D01*
X83861908Y-12818517D01*
X83855501Y-12878116D01*
X83855501Y-12878123D01*
X83855500Y-12878135D01*
X83855500Y-14481870D01*
X83855501Y-14481876D01*
X83861908Y-14541483D01*
X83912202Y-14676328D01*
X83912206Y-14676335D01*
X83998452Y-14791544D01*
X83998453Y-14791544D01*
X83998454Y-14791546D01*
X84038778Y-14821732D01*
X84077935Y-14851046D01*
X84119805Y-14906980D01*
X84124789Y-14976672D01*
X84091303Y-15037994D01*
X84077935Y-15049578D01*
X83998809Y-15108812D01*
X83912649Y-15223906D01*
X83912645Y-15223913D01*
X83862403Y-15358620D01*
X83862401Y-15358627D01*
X83856000Y-15418155D01*
X83856000Y-15970000D01*
X84676988Y-15970000D01*
X84644075Y-16027007D01*
X84610000Y-16154174D01*
X84610000Y-16285826D01*
X84644075Y-16412993D01*
X84676988Y-16470000D01*
X83856000Y-16470000D01*
X83856000Y-17021844D01*
X83862401Y-17081372D01*
X83862403Y-17081379D01*
X83912645Y-17216086D01*
X83912649Y-17216093D01*
X83998809Y-17331186D01*
X84077934Y-17390420D01*
X84119805Y-17446354D01*
X84124789Y-17516046D01*
X84091304Y-17577369D01*
X84077935Y-17588953D01*
X83998452Y-17648455D01*
X83912206Y-17763664D01*
X83912202Y-17763671D01*
X83861908Y-17898517D01*
X83855501Y-17958116D01*
X83855501Y-17958123D01*
X83855500Y-17958135D01*
X83855500Y-19561870D01*
X83855501Y-19561876D01*
X83861908Y-19621483D01*
X83912202Y-19756328D01*
X83912206Y-19756335D01*
X83998452Y-19871544D01*
X83998453Y-19871544D01*
X83998454Y-19871546D01*
X84032799Y-19897257D01*
X84077518Y-19930734D01*
X84119388Y-19986668D01*
X84124372Y-20056360D01*
X84090886Y-20117683D01*
X84077518Y-20129266D01*
X83998452Y-20188455D01*
X83912206Y-20303664D01*
X83912202Y-20303671D01*
X83861908Y-20438517D01*
X83855501Y-20498116D01*
X83855501Y-20498123D01*
X83855500Y-20498135D01*
X83855500Y-20575500D01*
X83835815Y-20642539D01*
X83783011Y-20688294D01*
X83731500Y-20699500D01*
X83620940Y-20699500D01*
X83580019Y-20710464D01*
X83580019Y-20710465D01*
X83542751Y-20720451D01*
X83468214Y-20740423D01*
X83468209Y-20740426D01*
X83331290Y-20819475D01*
X83331282Y-20819481D01*
X80019481Y-24131282D01*
X80019479Y-24131285D01*
X79969361Y-24218094D01*
X79969359Y-24218096D01*
X79940425Y-24268209D01*
X79940424Y-24268210D01*
X79940423Y-24268215D01*
X79899499Y-24420943D01*
X79899499Y-24420945D01*
X79899499Y-24589046D01*
X79899500Y-24589059D01*
X79899500Y-25699902D01*
X79879815Y-25766941D01*
X79863181Y-25787583D01*
X75519481Y-30131282D01*
X75519477Y-30131287D01*
X75476632Y-30205499D01*
X75476632Y-30205500D01*
X75440423Y-30268214D01*
X75440423Y-30268215D01*
X75399499Y-30420943D01*
X75399499Y-30420945D01*
X75399499Y-30589046D01*
X75399500Y-30589059D01*
X75399500Y-31667587D01*
X75379815Y-31734626D01*
X75372450Y-31744896D01*
X75370186Y-31747734D01*
X75274211Y-31900476D01*
X75214631Y-32070745D01*
X75214630Y-32070750D01*
X75194435Y-32249996D01*
X75194435Y-32250003D01*
X75214630Y-32429249D01*
X75214631Y-32429254D01*
X75274211Y-32599523D01*
X75365935Y-32745500D01*
X75370184Y-32752262D01*
X75497738Y-32879816D01*
X75650478Y-32975789D01*
X75820745Y-33035368D01*
X75820750Y-33035369D01*
X75999996Y-33055565D01*
X76000000Y-33055565D01*
X76000004Y-33055565D01*
X76179249Y-33035369D01*
X76179252Y-33035368D01*
X76179255Y-33035368D01*
X76349522Y-32975789D01*
X76502262Y-32879816D01*
X76629816Y-32752262D01*
X76725789Y-32599522D01*
X76785368Y-32429255D01*
X76804227Y-32261876D01*
X76805565Y-32250003D01*
X76805565Y-32249996D01*
X76785369Y-32070750D01*
X76785368Y-32070745D01*
X76725788Y-31900476D01*
X76629813Y-31747734D01*
X76627550Y-31744896D01*
X76626659Y-31742715D01*
X76626111Y-31741842D01*
X76626264Y-31741745D01*
X76601144Y-31680209D01*
X76600500Y-31667587D01*
X76600500Y-30800096D01*
X76620185Y-30733057D01*
X76636814Y-30712420D01*
X80858506Y-26490727D01*
X80858511Y-26490724D01*
X80868714Y-26480520D01*
X80868716Y-26480520D01*
X80980520Y-26368716D01*
X80984408Y-26361980D01*
X81038544Y-26268216D01*
X81038545Y-26268214D01*
X81059574Y-26231790D01*
X81059575Y-26231789D01*
X81059575Y-26231787D01*
X81059577Y-26231785D01*
X81100501Y-26079057D01*
X81100501Y-25920943D01*
X81100501Y-25913348D01*
X81100500Y-25913330D01*
X81100500Y-24800096D01*
X81120185Y-24733057D01*
X81136814Y-24712420D01*
X83678164Y-22171069D01*
X83739485Y-22137586D01*
X83809177Y-22142570D01*
X83865110Y-22184442D01*
X83882025Y-22215419D01*
X83912202Y-22296328D01*
X83912206Y-22296335D01*
X83998452Y-22411544D01*
X83998453Y-22411544D01*
X83998454Y-22411546D01*
X84032799Y-22437257D01*
X84077518Y-22470734D01*
X84119388Y-22526668D01*
X84124372Y-22596360D01*
X84090886Y-22657683D01*
X84077518Y-22669266D01*
X83998452Y-22728455D01*
X83912206Y-22843664D01*
X83912202Y-22843671D01*
X83861908Y-22978517D01*
X83855501Y-23038116D01*
X83855501Y-23038123D01*
X83855500Y-23038135D01*
X83855501Y-24363015D01*
X83835816Y-24430054D01*
X83783013Y-24475809D01*
X83731501Y-24487015D01*
X83621604Y-24487015D01*
X83468877Y-24527938D01*
X83468876Y-24527938D01*
X83468874Y-24527939D01*
X83468871Y-24527940D01*
X83418758Y-24556874D01*
X83418757Y-24556875D01*
X83401111Y-24567063D01*
X83331947Y-24606994D01*
X83331944Y-24606996D01*
X81519479Y-26419461D01*
X81517016Y-26423728D01*
X81484228Y-26480520D01*
X81440423Y-26556392D01*
X81399499Y-26709120D01*
X81399499Y-26709122D01*
X81399499Y-26877223D01*
X81399500Y-26877236D01*
X81399500Y-28199902D01*
X81379815Y-28266941D01*
X81363181Y-28287583D01*
X79981465Y-29669298D01*
X79920142Y-29702783D01*
X79907668Y-29704837D01*
X79820750Y-29714630D01*
X79650478Y-29774210D01*
X79497737Y-29870184D01*
X79370184Y-29997737D01*
X79274211Y-30150476D01*
X79214631Y-30320745D01*
X79214630Y-30320750D01*
X79194435Y-30499996D01*
X79194435Y-30500003D01*
X79214630Y-30679249D01*
X79214631Y-30679254D01*
X79274211Y-30849523D01*
X79370184Y-31002262D01*
X79497738Y-31129816D01*
X79650478Y-31225789D01*
X79820745Y-31285368D01*
X79820750Y-31285369D01*
X79999996Y-31305565D01*
X80000000Y-31305565D01*
X80000004Y-31305565D01*
X80179249Y-31285369D01*
X80179252Y-31285368D01*
X80179255Y-31285368D01*
X80349522Y-31225789D01*
X80502262Y-31129816D01*
X80629816Y-31002262D01*
X80725789Y-30849522D01*
X80785368Y-30679255D01*
X80795161Y-30592329D01*
X80822226Y-30527918D01*
X80830690Y-30518543D01*
X82368713Y-28980521D01*
X82368716Y-28980520D01*
X82480520Y-28868716D01*
X82530639Y-28781904D01*
X82559577Y-28731785D01*
X82600500Y-28579057D01*
X82600500Y-28420943D01*
X82600500Y-27088273D01*
X82620185Y-27021234D01*
X82636814Y-27000597D01*
X83643821Y-25993589D01*
X83705142Y-25960106D01*
X83774834Y-25965090D01*
X83830767Y-26006962D01*
X83855184Y-26072426D01*
X83855500Y-26081272D01*
X83855500Y-27181870D01*
X83855501Y-27181876D01*
X83861908Y-27241483D01*
X83912202Y-27376328D01*
X83912206Y-27376335D01*
X83998452Y-27491544D01*
X83998453Y-27491544D01*
X83998454Y-27491546D01*
X84038778Y-27521732D01*
X84077935Y-27551046D01*
X84119805Y-27606980D01*
X84124789Y-27676672D01*
X84091303Y-27737994D01*
X84077935Y-27749578D01*
X83998809Y-27808812D01*
X83912649Y-27923906D01*
X83912645Y-27923913D01*
X83862403Y-28058620D01*
X83862401Y-28058627D01*
X83856000Y-28118155D01*
X83856000Y-28670000D01*
X84676988Y-28670000D01*
X84644075Y-28727007D01*
X84610000Y-28854174D01*
X84610000Y-28985826D01*
X84644075Y-29112993D01*
X84676988Y-29170000D01*
X83856000Y-29170000D01*
X83856000Y-29721844D01*
X83862401Y-29781372D01*
X83862403Y-29781379D01*
X83912645Y-29916086D01*
X83912649Y-29916093D01*
X83998809Y-30031186D01*
X84077934Y-30090420D01*
X84119805Y-30146354D01*
X84124789Y-30216046D01*
X84091304Y-30277369D01*
X84077935Y-30288953D01*
X83998452Y-30348455D01*
X83912206Y-30463664D01*
X83912202Y-30463671D01*
X83861908Y-30598517D01*
X83855501Y-30658116D01*
X83855501Y-30658123D01*
X83855500Y-30658135D01*
X83855500Y-32261870D01*
X83855501Y-32261876D01*
X83861908Y-32321483D01*
X83912202Y-32456328D01*
X83912206Y-32456335D01*
X83998452Y-32571544D01*
X83998453Y-32571544D01*
X83998454Y-32571546D01*
X84032799Y-32597257D01*
X84077518Y-32630734D01*
X84119388Y-32686668D01*
X84124372Y-32756360D01*
X84090886Y-32817683D01*
X84077518Y-32829266D01*
X83998452Y-32888455D01*
X83912206Y-33003664D01*
X83912202Y-33003671D01*
X83861908Y-33138517D01*
X83855501Y-33198116D01*
X83855501Y-33198123D01*
X83855500Y-33198135D01*
X83855500Y-34801870D01*
X83855501Y-34801876D01*
X83861908Y-34861483D01*
X83912202Y-34996328D01*
X83912206Y-34996335D01*
X83998452Y-35111544D01*
X83998453Y-35111544D01*
X83998454Y-35111546D01*
X84032799Y-35137257D01*
X84077518Y-35170734D01*
X84119388Y-35226668D01*
X84124372Y-35296360D01*
X84090886Y-35357683D01*
X84077518Y-35369266D01*
X83998452Y-35428455D01*
X83912206Y-35543664D01*
X83912202Y-35543671D01*
X83861908Y-35678517D01*
X83855501Y-35738116D01*
X83855501Y-35738123D01*
X83855500Y-35738135D01*
X83855500Y-37341870D01*
X83855501Y-37341876D01*
X83861908Y-37401483D01*
X83912202Y-37536328D01*
X83912206Y-37536335D01*
X83998452Y-37651544D01*
X83998453Y-37651544D01*
X83998454Y-37651546D01*
X84032799Y-37677257D01*
X84077518Y-37710734D01*
X84119388Y-37766668D01*
X84124372Y-37836360D01*
X84090886Y-37897683D01*
X84077518Y-37909266D01*
X83998452Y-37968455D01*
X83912206Y-38083664D01*
X83912202Y-38083671D01*
X83861908Y-38218517D01*
X83855501Y-38278116D01*
X83855501Y-38278123D01*
X83855500Y-38278135D01*
X83855500Y-39881870D01*
X83855501Y-39881876D01*
X83861908Y-39941483D01*
X83912202Y-40076328D01*
X83912206Y-40076335D01*
X83998452Y-40191544D01*
X83998453Y-40191544D01*
X83998454Y-40191546D01*
X84038778Y-40221732D01*
X84077935Y-40251046D01*
X84119805Y-40306980D01*
X84124789Y-40376672D01*
X84091303Y-40437994D01*
X84077935Y-40449578D01*
X83998809Y-40508812D01*
X83912649Y-40623906D01*
X83912645Y-40623913D01*
X83862403Y-40758620D01*
X83862401Y-40758627D01*
X83856000Y-40818155D01*
X83856000Y-41370000D01*
X84676988Y-41370000D01*
X84644075Y-41427007D01*
X84610000Y-41554174D01*
X84610000Y-41685826D01*
X84644075Y-41812993D01*
X84676988Y-41870000D01*
X83856000Y-41870000D01*
X83856000Y-42421844D01*
X83862401Y-42481372D01*
X83862403Y-42481379D01*
X83912645Y-42616086D01*
X83912649Y-42616093D01*
X83998809Y-42731186D01*
X84077934Y-42790420D01*
X84119805Y-42846354D01*
X84124789Y-42916046D01*
X84091304Y-42977369D01*
X84077935Y-42988953D01*
X83998452Y-43048455D01*
X83912206Y-43163664D01*
X83912202Y-43163671D01*
X83861908Y-43298517D01*
X83855501Y-43358116D01*
X83855501Y-43358123D01*
X83855500Y-43358135D01*
X83855500Y-44961870D01*
X83855501Y-44961876D01*
X83861908Y-45021483D01*
X83912202Y-45156328D01*
X83912206Y-45156335D01*
X83998452Y-45271544D01*
X83998453Y-45271544D01*
X83998454Y-45271546D01*
X84032799Y-45297257D01*
X84077518Y-45330734D01*
X84119388Y-45386668D01*
X84124372Y-45456360D01*
X84090886Y-45517683D01*
X84077518Y-45529266D01*
X83998452Y-45588455D01*
X83912206Y-45703664D01*
X83912202Y-45703671D01*
X83861908Y-45838517D01*
X83855501Y-45898116D01*
X83855501Y-45898123D01*
X83855500Y-45898135D01*
X83855500Y-47501870D01*
X83855501Y-47501876D01*
X83861908Y-47561483D01*
X83912202Y-47696328D01*
X83912206Y-47696335D01*
X83998452Y-47811544D01*
X83998453Y-47811544D01*
X83998454Y-47811546D01*
X84032799Y-47837257D01*
X84077518Y-47870734D01*
X84119388Y-47926668D01*
X84124372Y-47996360D01*
X84090886Y-48057683D01*
X84077518Y-48069266D01*
X83998452Y-48128455D01*
X83912206Y-48243664D01*
X83912202Y-48243671D01*
X83861908Y-48378517D01*
X83855501Y-48438116D01*
X83855501Y-48438123D01*
X83855500Y-48438135D01*
X83855500Y-50041870D01*
X83855501Y-50041876D01*
X83861908Y-50101483D01*
X83912202Y-50236328D01*
X83912206Y-50236335D01*
X83998452Y-50351544D01*
X83998453Y-50351544D01*
X83998454Y-50351546D01*
X84032799Y-50377257D01*
X84077518Y-50410734D01*
X84119388Y-50466668D01*
X84124372Y-50536360D01*
X84090886Y-50597683D01*
X84077518Y-50609266D01*
X83998452Y-50668455D01*
X83912206Y-50783664D01*
X83912202Y-50783671D01*
X83861908Y-50918517D01*
X83856946Y-50964674D01*
X83855501Y-50978123D01*
X83855500Y-50978135D01*
X83855500Y-52581870D01*
X83855501Y-52581876D01*
X83861908Y-52641483D01*
X83912202Y-52776328D01*
X83912206Y-52776335D01*
X83998452Y-52891544D01*
X83998453Y-52891544D01*
X83998454Y-52891546D01*
X84038778Y-52921732D01*
X84077935Y-52951046D01*
X84119805Y-53006980D01*
X84124789Y-53076672D01*
X84091303Y-53137994D01*
X84077935Y-53149578D01*
X83998809Y-53208812D01*
X83912649Y-53323906D01*
X83912645Y-53323913D01*
X83862403Y-53458620D01*
X83862401Y-53458627D01*
X83856000Y-53518155D01*
X83856000Y-54070000D01*
X84676988Y-54070000D01*
X84644075Y-54127007D01*
X84610000Y-54254174D01*
X84610000Y-54385826D01*
X84644075Y-54512993D01*
X84676988Y-54570000D01*
X83856000Y-54570000D01*
X83856000Y-55121844D01*
X83862401Y-55181372D01*
X83862403Y-55181379D01*
X83912645Y-55316086D01*
X83912649Y-55316093D01*
X83998809Y-55431186D01*
X84077934Y-55490420D01*
X84119805Y-55546354D01*
X84124789Y-55616046D01*
X84091304Y-55677369D01*
X84077935Y-55688953D01*
X83998452Y-55748455D01*
X83912206Y-55863664D01*
X83912202Y-55863671D01*
X83861908Y-55998517D01*
X83855501Y-56058116D01*
X83855501Y-56058123D01*
X83855500Y-56058135D01*
X83855500Y-57661870D01*
X83855501Y-57661876D01*
X83861908Y-57721483D01*
X83912202Y-57856328D01*
X83912206Y-57856335D01*
X83998452Y-57971544D01*
X83998453Y-57971544D01*
X83998454Y-57971546D01*
X84032799Y-57997257D01*
X84077518Y-58030734D01*
X84119388Y-58086668D01*
X84124372Y-58156360D01*
X84090886Y-58217683D01*
X84077518Y-58229266D01*
X83998452Y-58288455D01*
X83912206Y-58403664D01*
X83912202Y-58403671D01*
X83861908Y-58538517D01*
X83855501Y-58598116D01*
X83855501Y-58598123D01*
X83855500Y-58598135D01*
X83855500Y-60201870D01*
X83855501Y-60201876D01*
X83861908Y-60261483D01*
X83912202Y-60396328D01*
X83912206Y-60396335D01*
X83998452Y-60511544D01*
X83998455Y-60511547D01*
X84113664Y-60597793D01*
X84113671Y-60597797D01*
X84248517Y-60648091D01*
X84248516Y-60648091D01*
X84255444Y-60648835D01*
X84308127Y-60654500D01*
X85911872Y-60654499D01*
X85971483Y-60648091D01*
X86106331Y-60597796D01*
X86221546Y-60511546D01*
X86307796Y-60396331D01*
X86358091Y-60261483D01*
X86364500Y-60201873D01*
X86364499Y-58598128D01*
X86358091Y-58538517D01*
X86307796Y-58403669D01*
X86307795Y-58403668D01*
X86307793Y-58403664D01*
X86221547Y-58288455D01*
X86221544Y-58288452D01*
X86142482Y-58229266D01*
X86100611Y-58173333D01*
X86095627Y-58103641D01*
X86129113Y-58042318D01*
X86142482Y-58030734D01*
X86187415Y-57997096D01*
X86221546Y-57971546D01*
X86307796Y-57856331D01*
X86358091Y-57721483D01*
X86364500Y-57661873D01*
X86364499Y-56058128D01*
X86358091Y-55998517D01*
X86307796Y-55863669D01*
X86307795Y-55863668D01*
X86307793Y-55863664D01*
X86221547Y-55748455D01*
X86142064Y-55688953D01*
X86100194Y-55633019D01*
X86095210Y-55563327D01*
X86128696Y-55502004D01*
X86142065Y-55490420D01*
X86221191Y-55431186D01*
X86307350Y-55316093D01*
X86307354Y-55316086D01*
X86357596Y-55181379D01*
X86357598Y-55181372D01*
X86363999Y-55121844D01*
X86364000Y-55121827D01*
X86364000Y-54570000D01*
X85543012Y-54570000D01*
X85575925Y-54512993D01*
X85610000Y-54385826D01*
X85610000Y-54254174D01*
X85575925Y-54127007D01*
X85543012Y-54070000D01*
X86364000Y-54070000D01*
X86364000Y-53518172D01*
X86363999Y-53518155D01*
X86357598Y-53458627D01*
X86357596Y-53458620D01*
X86307354Y-53323913D01*
X86307350Y-53323906D01*
X86221190Y-53208812D01*
X86221187Y-53208809D01*
X86142065Y-53149578D01*
X86100194Y-53093644D01*
X86095210Y-53023953D01*
X86128696Y-52962630D01*
X86142064Y-52951046D01*
X86221546Y-52891546D01*
X86307796Y-52776331D01*
X86358091Y-52641483D01*
X86364500Y-52581873D01*
X86364500Y-52513097D01*
X86384185Y-52446058D01*
X86436989Y-52400303D01*
X86506147Y-52390359D01*
X86569703Y-52419384D01*
X86576181Y-52425416D01*
X86863181Y-52712416D01*
X86896666Y-52773739D01*
X86899500Y-52800097D01*
X86899500Y-63913330D01*
X86899499Y-63913348D01*
X86899499Y-64079054D01*
X86899498Y-64079054D01*
X86940423Y-64231785D01*
X86969358Y-64281900D01*
X86969359Y-64281904D01*
X86969360Y-64281904D01*
X87016284Y-64363181D01*
X87019479Y-64368714D01*
X87019481Y-64368717D01*
X87138349Y-64487585D01*
X87138354Y-64487589D01*
X88131284Y-65480520D01*
X88131286Y-65480521D01*
X88131290Y-65480524D01*
X88268209Y-65559573D01*
X88268216Y-65559577D01*
X88420943Y-65600501D01*
X88420945Y-65600501D01*
X88586654Y-65600501D01*
X88586670Y-65600500D01*
X106913331Y-65600500D01*
X106913347Y-65600501D01*
X106920943Y-65600501D01*
X107079054Y-65600501D01*
X107079057Y-65600501D01*
X107231785Y-65559577D01*
X107281904Y-65530639D01*
X107368716Y-65480520D01*
X107480520Y-65368716D01*
X107480520Y-65368714D01*
X107490728Y-65358507D01*
X107490730Y-65358504D01*
X109368713Y-63480521D01*
X109368716Y-63480520D01*
X109480520Y-63368716D01*
X109530639Y-63281904D01*
X109559577Y-63231785D01*
X109600500Y-63079057D01*
X109600500Y-62920943D01*
X109600500Y-60999999D01*
X110544422Y-60999999D01*
X110544422Y-61000000D01*
X110564722Y-61387339D01*
X110625397Y-61770427D01*
X110625397Y-61770429D01*
X110725788Y-62145094D01*
X110864787Y-62507197D01*
X111040877Y-62852793D01*
X111252122Y-63178082D01*
X111336196Y-63281904D01*
X111496219Y-63479516D01*
X111770484Y-63753781D01*
X111770488Y-63753784D01*
X112071917Y-63997877D01*
X112397206Y-64209122D01*
X112397211Y-64209125D01*
X112742806Y-64385214D01*
X113104913Y-64524214D01*
X113479567Y-64624602D01*
X113862662Y-64685278D01*
X114228576Y-64704455D01*
X114249999Y-64705578D01*
X114250000Y-64705578D01*
X114250001Y-64705578D01*
X114270301Y-64704514D01*
X114637338Y-64685278D01*
X115020433Y-64624602D01*
X115395087Y-64524214D01*
X115757194Y-64385214D01*
X116102789Y-64209125D01*
X116428084Y-63997876D01*
X116729516Y-63753781D01*
X117003781Y-63479516D01*
X117247876Y-63178084D01*
X117459125Y-62852789D01*
X117635214Y-62507194D01*
X117774214Y-62145087D01*
X117874602Y-61770433D01*
X117935278Y-61387338D01*
X117955578Y-61000000D01*
X117935278Y-60612662D01*
X117874602Y-60229567D01*
X117774214Y-59854913D01*
X117635214Y-59492806D01*
X117459125Y-59147211D01*
X117247876Y-58821916D01*
X117003781Y-58520484D01*
X116729516Y-58246219D01*
X116639509Y-58173333D01*
X116428082Y-58002122D01*
X116102793Y-57790877D01*
X115757197Y-57614787D01*
X115395094Y-57475788D01*
X115395087Y-57475786D01*
X115020433Y-57375398D01*
X115020429Y-57375397D01*
X115020428Y-57375397D01*
X114637339Y-57314722D01*
X114250001Y-57294422D01*
X114249999Y-57294422D01*
X113862660Y-57314722D01*
X113479572Y-57375397D01*
X113479570Y-57375397D01*
X113104905Y-57475788D01*
X112742802Y-57614787D01*
X112397206Y-57790877D01*
X112071917Y-58002122D01*
X111770488Y-58246215D01*
X111770480Y-58246222D01*
X111496222Y-58520480D01*
X111496215Y-58520488D01*
X111252122Y-58821917D01*
X111040877Y-59147206D01*
X110864787Y-59492802D01*
X110725788Y-59854905D01*
X110625397Y-60229570D01*
X110625397Y-60229572D01*
X110564722Y-60612660D01*
X110544422Y-60999999D01*
X109600500Y-60999999D01*
X109600500Y-53876673D01*
X109620185Y-53809634D01*
X109672989Y-53763879D01*
X109737757Y-53753385D01*
X109748127Y-53754500D01*
X111351872Y-53754499D01*
X111411483Y-53748091D01*
X111546331Y-53697796D01*
X111661546Y-53611546D01*
X111747796Y-53496331D01*
X111798091Y-53361483D01*
X111804500Y-53301873D01*
X111804499Y-51698128D01*
X111798091Y-51638517D01*
X111776127Y-51579629D01*
X111747797Y-51503671D01*
X111747793Y-51503664D01*
X111661547Y-51388455D01*
X111661544Y-51388452D01*
X111546335Y-51302206D01*
X111546328Y-51302202D01*
X111411482Y-51251908D01*
X111411483Y-51251908D01*
X111351883Y-51245501D01*
X111351881Y-51245500D01*
X111351873Y-51245500D01*
X111351865Y-51245500D01*
X111351674Y-51245500D01*
X111351631Y-51245487D01*
X111348548Y-51245322D01*
X111348587Y-51244593D01*
X111284635Y-51225815D01*
X111238880Y-51173011D01*
X111228936Y-51103853D01*
X111257961Y-51040297D01*
X111280551Y-51019925D01*
X111305776Y-51002262D01*
X111359457Y-50964674D01*
X111514674Y-50809457D01*
X111640579Y-50629646D01*
X111733347Y-50430703D01*
X111790161Y-50218674D01*
X111805629Y-50041870D01*
X111809292Y-50000002D01*
X111809292Y-49999997D01*
X111790161Y-49781331D01*
X111790161Y-49781326D01*
X111733347Y-49569297D01*
X111640579Y-49370354D01*
X111640577Y-49370351D01*
X111640576Y-49370349D01*
X111514677Y-49190547D01*
X111514672Y-49190541D01*
X111359458Y-49035327D01*
X111359452Y-49035322D01*
X111179650Y-48909423D01*
X111179646Y-48909421D01*
X111078178Y-48862106D01*
X111025739Y-48815934D01*
X111006587Y-48748740D01*
X111026803Y-48681859D01*
X111078179Y-48637342D01*
X111179390Y-48590146D01*
X111242443Y-48545995D01*
X110679410Y-47982962D01*
X110742993Y-47965925D01*
X110857007Y-47900099D01*
X110950099Y-47807007D01*
X111015925Y-47692993D01*
X111032962Y-47629409D01*
X111595995Y-48192442D01*
X111640145Y-48129392D01*
X111732874Y-47930533D01*
X111732878Y-47930524D01*
X111789664Y-47718592D01*
X111789666Y-47718582D01*
X111808790Y-47500000D01*
X111808790Y-47499999D01*
X111789666Y-47281417D01*
X111789664Y-47281407D01*
X111732878Y-47069475D01*
X111732874Y-47069466D01*
X111640144Y-46870605D01*
X111640142Y-46870601D01*
X111595996Y-46807555D01*
X111032962Y-47370589D01*
X111015925Y-47307007D01*
X110950099Y-47192993D01*
X110857007Y-47099901D01*
X110742993Y-47034075D01*
X110679409Y-47017037D01*
X111242443Y-46454003D01*
X111179392Y-46409854D01*
X110980533Y-46317125D01*
X110980524Y-46317121D01*
X110768592Y-46260335D01*
X110768582Y-46260333D01*
X110550001Y-46241210D01*
X110549999Y-46241210D01*
X110331417Y-46260333D01*
X110331407Y-46260335D01*
X110119475Y-46317121D01*
X110119466Y-46317124D01*
X109920606Y-46409855D01*
X109920604Y-46409856D01*
X109857556Y-46454003D01*
X109857555Y-46454003D01*
X110420590Y-47017037D01*
X110357007Y-47034075D01*
X110242993Y-47099901D01*
X110149901Y-47192993D01*
X110084075Y-47307007D01*
X110067037Y-47370590D01*
X109504003Y-46807555D01*
X109504003Y-46807556D01*
X109459856Y-46870604D01*
X109459855Y-46870606D01*
X109367124Y-47069466D01*
X109367121Y-47069475D01*
X109310335Y-47281407D01*
X109310333Y-47281417D01*
X109291210Y-47499999D01*
X109291210Y-47500000D01*
X109310333Y-47718582D01*
X109310335Y-47718592D01*
X109367121Y-47930524D01*
X109367125Y-47930533D01*
X109459854Y-48129392D01*
X109504003Y-48192443D01*
X110067037Y-47629409D01*
X110084075Y-47692993D01*
X110149901Y-47807007D01*
X110242993Y-47900099D01*
X110357007Y-47965925D01*
X110420590Y-47982962D01*
X109857555Y-48545996D01*
X109920601Y-48590142D01*
X109920605Y-48590144D01*
X110021821Y-48637342D01*
X110074260Y-48683514D01*
X110093412Y-48750708D01*
X110073196Y-48817589D01*
X110021821Y-48862106D01*
X109920353Y-48909421D01*
X109920349Y-48909423D01*
X109740547Y-49035322D01*
X109740541Y-49035327D01*
X109585327Y-49190541D01*
X109585322Y-49190547D01*
X109469074Y-49356568D01*
X109414497Y-49400193D01*
X109399600Y-49405217D01*
X109268216Y-49440423D01*
X109268215Y-49440423D01*
X109268213Y-49440424D01*
X109268209Y-49440426D01*
X109131290Y-49519475D01*
X109131282Y-49519481D01*
X108624217Y-50026546D01*
X108624214Y-50026548D01*
X108624215Y-50026549D01*
X108519478Y-50131286D01*
X108469361Y-50218094D01*
X108469359Y-50218096D01*
X108440425Y-50268209D01*
X108440424Y-50268210D01*
X108440423Y-50268215D01*
X108399499Y-50420943D01*
X108399499Y-50420945D01*
X108399499Y-50589046D01*
X108399500Y-50589059D01*
X108399500Y-62699903D01*
X108379815Y-62766942D01*
X108363181Y-62787584D01*
X106787584Y-64363181D01*
X106726261Y-64396666D01*
X106699903Y-64399500D01*
X88800098Y-64399500D01*
X88733059Y-64379815D01*
X88712417Y-64363181D01*
X88136819Y-63787583D01*
X88103334Y-63726260D01*
X88100500Y-63699902D01*
X88100500Y-54499996D01*
X94194435Y-54499996D01*
X94194435Y-54500003D01*
X94214630Y-54679249D01*
X94214631Y-54679254D01*
X94274211Y-54849523D01*
X94343856Y-54960361D01*
X94370184Y-55002262D01*
X94497738Y-55129816D01*
X94650478Y-55225789D01*
X94820745Y-55285368D01*
X94820750Y-55285369D01*
X94999996Y-55305565D01*
X95000000Y-55305565D01*
X95000004Y-55305565D01*
X95179249Y-55285369D01*
X95179252Y-55285368D01*
X95179255Y-55285368D01*
X95349522Y-55225789D01*
X95502262Y-55129816D01*
X95502267Y-55129810D01*
X95505097Y-55127555D01*
X95507275Y-55126665D01*
X95508158Y-55126111D01*
X95508255Y-55126265D01*
X95569783Y-55101145D01*
X95582412Y-55100500D01*
X98417588Y-55100500D01*
X98484627Y-55120185D01*
X98494903Y-55127555D01*
X98497736Y-55129814D01*
X98497738Y-55129816D01*
X98650478Y-55225789D01*
X98820745Y-55285368D01*
X98820750Y-55285369D01*
X98999996Y-55305565D01*
X99000000Y-55305565D01*
X99000004Y-55305565D01*
X99179249Y-55285369D01*
X99179252Y-55285368D01*
X99179255Y-55285368D01*
X99349522Y-55225789D01*
X99502262Y-55129816D01*
X99629816Y-55002262D01*
X99725789Y-54849522D01*
X99785368Y-54679255D01*
X99801058Y-54540000D01*
X99805565Y-54500003D01*
X99805565Y-54499996D01*
X99785369Y-54320750D01*
X99785368Y-54320745D01*
X99746634Y-54210051D01*
X99725789Y-54150478D01*
X99629816Y-53997738D01*
X99502262Y-53870184D01*
X99422395Y-53820000D01*
X99349523Y-53774211D01*
X99179254Y-53714631D01*
X99179249Y-53714630D01*
X99000004Y-53694435D01*
X98999996Y-53694435D01*
X98820750Y-53714630D01*
X98820745Y-53714631D01*
X98650476Y-53774211D01*
X98497736Y-53870185D01*
X98494903Y-53872445D01*
X98492724Y-53873334D01*
X98491842Y-53873889D01*
X98491744Y-53873734D01*
X98430217Y-53898855D01*
X98417588Y-53899500D01*
X95582412Y-53899500D01*
X95515373Y-53879815D01*
X95505097Y-53872445D01*
X95502263Y-53870185D01*
X95502262Y-53870184D01*
X95422395Y-53820000D01*
X95349523Y-53774211D01*
X95179254Y-53714631D01*
X95179249Y-53714630D01*
X95000004Y-53694435D01*
X94999996Y-53694435D01*
X94820750Y-53714630D01*
X94820745Y-53714631D01*
X94650476Y-53774211D01*
X94497737Y-53870184D01*
X94370184Y-53997737D01*
X94274211Y-54150476D01*
X94214631Y-54320745D01*
X94214630Y-54320750D01*
X94194435Y-54499996D01*
X88100500Y-54499996D01*
X88100500Y-52589060D01*
X88100501Y-52589047D01*
X88100501Y-52420944D01*
X88067701Y-52298535D01*
X88059577Y-52268216D01*
X88057749Y-52265050D01*
X87980524Y-52131290D01*
X87980518Y-52131282D01*
X87267590Y-51418355D01*
X87267588Y-51418352D01*
X87148717Y-51299481D01*
X87148716Y-51299480D01*
X87061904Y-51249360D01*
X87061904Y-51249359D01*
X87061900Y-51249358D01*
X87011785Y-51220423D01*
X86859057Y-51179499D01*
X86700943Y-51179499D01*
X86693347Y-51179499D01*
X86693331Y-51179500D01*
X86488499Y-51179500D01*
X86421460Y-51159815D01*
X86375705Y-51107011D01*
X86364499Y-51055500D01*
X86364499Y-50978129D01*
X86364498Y-50978123D01*
X86364497Y-50978116D01*
X86358091Y-50918517D01*
X86329834Y-50842757D01*
X86307797Y-50783671D01*
X86307793Y-50783664D01*
X86221547Y-50668455D01*
X86221544Y-50668452D01*
X86142482Y-50609266D01*
X86100611Y-50553333D01*
X86096797Y-50499996D01*
X94194435Y-50499996D01*
X94194435Y-50500003D01*
X94214630Y-50679249D01*
X94214631Y-50679254D01*
X94274211Y-50849523D01*
X94355020Y-50978129D01*
X94370184Y-51002262D01*
X94497738Y-51129816D01*
X94650478Y-51225789D01*
X94725122Y-51251908D01*
X94820745Y-51285368D01*
X94820750Y-51285369D01*
X94999996Y-51305565D01*
X95000000Y-51305565D01*
X95000004Y-51305565D01*
X95179249Y-51285369D01*
X95179252Y-51285368D01*
X95179255Y-51285368D01*
X95349522Y-51225789D01*
X95502262Y-51129816D01*
X95502267Y-51129810D01*
X95505097Y-51127555D01*
X95507275Y-51126665D01*
X95508158Y-51126111D01*
X95508255Y-51126265D01*
X95569783Y-51101145D01*
X95582412Y-51100500D01*
X98417588Y-51100500D01*
X98484627Y-51120185D01*
X98494903Y-51127555D01*
X98497736Y-51129814D01*
X98497738Y-51129816D01*
X98650478Y-51225789D01*
X98725122Y-51251908D01*
X98820745Y-51285368D01*
X98820750Y-51285369D01*
X98999996Y-51305565D01*
X99000000Y-51305565D01*
X99000004Y-51305565D01*
X99179249Y-51285369D01*
X99179252Y-51285368D01*
X99179255Y-51285368D01*
X99349522Y-51225789D01*
X99502262Y-51129816D01*
X99629816Y-51002262D01*
X99725789Y-50849522D01*
X99785368Y-50679255D01*
X99786585Y-50668454D01*
X99805565Y-50500003D01*
X99805565Y-50499996D01*
X99785369Y-50320750D01*
X99785368Y-50320745D01*
X99760627Y-50250039D01*
X99725789Y-50150478D01*
X99629816Y-49997738D01*
X99502262Y-49870184D01*
X99349523Y-49774211D01*
X99179254Y-49714631D01*
X99179249Y-49714630D01*
X99000004Y-49694435D01*
X98999996Y-49694435D01*
X98820750Y-49714630D01*
X98820745Y-49714631D01*
X98650476Y-49774211D01*
X98497736Y-49870185D01*
X98494903Y-49872445D01*
X98492724Y-49873334D01*
X98491842Y-49873889D01*
X98491744Y-49873734D01*
X98430217Y-49898855D01*
X98417588Y-49899500D01*
X95582412Y-49899500D01*
X95515373Y-49879815D01*
X95505097Y-49872445D01*
X95502263Y-49870185D01*
X95502262Y-49870184D01*
X95445496Y-49834515D01*
X95349523Y-49774211D01*
X95179254Y-49714631D01*
X95179249Y-49714630D01*
X95000004Y-49694435D01*
X94999996Y-49694435D01*
X94820750Y-49714630D01*
X94820745Y-49714631D01*
X94650476Y-49774211D01*
X94497737Y-49870184D01*
X94370184Y-49997737D01*
X94274211Y-50150476D01*
X94214631Y-50320745D01*
X94214630Y-50320750D01*
X94194435Y-50499996D01*
X86096797Y-50499996D01*
X86095627Y-50483641D01*
X86129113Y-50422318D01*
X86142482Y-50410734D01*
X86187415Y-50377096D01*
X86221546Y-50351546D01*
X86307796Y-50236331D01*
X86358091Y-50101483D01*
X86364500Y-50041873D01*
X86364499Y-48438128D01*
X86358091Y-48378517D01*
X86310006Y-48249595D01*
X86307797Y-48243671D01*
X86307793Y-48243664D01*
X86221547Y-48128455D01*
X86221544Y-48128452D01*
X86142482Y-48069266D01*
X86100611Y-48013333D01*
X86095627Y-47943641D01*
X86129113Y-47882318D01*
X86142482Y-47870734D01*
X86187415Y-47837096D01*
X86221546Y-47811546D01*
X86307796Y-47696331D01*
X86358091Y-47561483D01*
X86364500Y-47501873D01*
X86364499Y-45898128D01*
X86358091Y-45838517D01*
X86351464Y-45820750D01*
X86307797Y-45703671D01*
X86307793Y-45703664D01*
X86221547Y-45588455D01*
X86221544Y-45588452D01*
X86142482Y-45529266D01*
X86100611Y-45473333D01*
X86095627Y-45403641D01*
X86129113Y-45342318D01*
X86142482Y-45330734D01*
X86187415Y-45297096D01*
X86221546Y-45271546D01*
X86307796Y-45156331D01*
X86358091Y-45021483D01*
X86364500Y-44961873D01*
X86364499Y-43358128D01*
X86358091Y-43298517D01*
X86348849Y-43273739D01*
X86307797Y-43163671D01*
X86307793Y-43163664D01*
X86221547Y-43048455D01*
X86142064Y-42988953D01*
X86100194Y-42933019D01*
X86095210Y-42863327D01*
X86128696Y-42802004D01*
X86142065Y-42790420D01*
X86221191Y-42731186D01*
X86307350Y-42616093D01*
X86307354Y-42616086D01*
X86357596Y-42481379D01*
X86357598Y-42481372D01*
X86363999Y-42421844D01*
X86364000Y-42421827D01*
X86364000Y-41870000D01*
X85543012Y-41870000D01*
X85575925Y-41812993D01*
X85610000Y-41685826D01*
X85610000Y-41554174D01*
X85575925Y-41427007D01*
X85543012Y-41370000D01*
X86364000Y-41370000D01*
X86364000Y-40818172D01*
X86363999Y-40818155D01*
X86357598Y-40758627D01*
X86357596Y-40758620D01*
X86307354Y-40623913D01*
X86307350Y-40623906D01*
X86221190Y-40508812D01*
X86221187Y-40508809D01*
X86142065Y-40449578D01*
X86100194Y-40393644D01*
X86095210Y-40323953D01*
X86128696Y-40262630D01*
X86142064Y-40251046D01*
X86221546Y-40191546D01*
X86307796Y-40076331D01*
X86358091Y-39941483D01*
X86364500Y-39881873D01*
X86364499Y-38278128D01*
X86358091Y-38218517D01*
X86325007Y-38129815D01*
X86307797Y-38083671D01*
X86307793Y-38083664D01*
X86221547Y-37968455D01*
X86221544Y-37968452D01*
X86142482Y-37909266D01*
X86100611Y-37853333D01*
X86095627Y-37783641D01*
X86129113Y-37722318D01*
X86142482Y-37710734D01*
X86187415Y-37677096D01*
X86221546Y-37651546D01*
X86307796Y-37536331D01*
X86358091Y-37401483D01*
X86364500Y-37341873D01*
X86364499Y-35738128D01*
X86358091Y-35678517D01*
X86307796Y-35543669D01*
X86307795Y-35543668D01*
X86307793Y-35543664D01*
X86221547Y-35428455D01*
X86221544Y-35428452D01*
X86142482Y-35369266D01*
X86100611Y-35313333D01*
X86095627Y-35243641D01*
X86129113Y-35182318D01*
X86142482Y-35170734D01*
X86187415Y-35137096D01*
X86221546Y-35111546D01*
X86307796Y-34996331D01*
X86358091Y-34861483D01*
X86364500Y-34801873D01*
X86364499Y-33198128D01*
X86358091Y-33138517D01*
X86319619Y-33035369D01*
X86307797Y-33003671D01*
X86307793Y-33003664D01*
X86221547Y-32888455D01*
X86221544Y-32888452D01*
X86142482Y-32829266D01*
X86100611Y-32773333D01*
X86095627Y-32703641D01*
X86129113Y-32642318D01*
X86142482Y-32630734D01*
X86187415Y-32597096D01*
X86221546Y-32571546D01*
X86307796Y-32456331D01*
X86358091Y-32321483D01*
X86364500Y-32261873D01*
X86364499Y-30658128D01*
X86358091Y-30598517D01*
X86354563Y-30589059D01*
X86307797Y-30463671D01*
X86307793Y-30463664D01*
X86221547Y-30348455D01*
X86142064Y-30288953D01*
X86100194Y-30233019D01*
X86095210Y-30163327D01*
X86128696Y-30102004D01*
X86142065Y-30090420D01*
X86221191Y-30031186D01*
X86307350Y-29916093D01*
X86307354Y-29916086D01*
X86357596Y-29781379D01*
X86357598Y-29781372D01*
X86363999Y-29721844D01*
X86364000Y-29721827D01*
X86364000Y-29170000D01*
X85543012Y-29170000D01*
X85575925Y-29112993D01*
X85610000Y-28985826D01*
X85610000Y-28854174D01*
X85575925Y-28727007D01*
X85543012Y-28670000D01*
X86364000Y-28670000D01*
X86364000Y-28118172D01*
X86363999Y-28118155D01*
X86357598Y-28058627D01*
X86357596Y-28058620D01*
X86307354Y-27923913D01*
X86307350Y-27923906D01*
X86221190Y-27808812D01*
X86221187Y-27808809D01*
X86142065Y-27749578D01*
X86100194Y-27693644D01*
X86095210Y-27623953D01*
X86128696Y-27562630D01*
X86142064Y-27551046D01*
X86221546Y-27491546D01*
X86307796Y-27376331D01*
X86358091Y-27241483D01*
X86364500Y-27181873D01*
X86364499Y-25805790D01*
X86384184Y-25738752D01*
X86436987Y-25692997D01*
X86456393Y-25686020D01*
X86601673Y-25647092D01*
X86678283Y-25602861D01*
X86738604Y-25568035D01*
X86850408Y-25456231D01*
X86850408Y-25456229D01*
X86860612Y-25446026D01*
X86860615Y-25446021D01*
X94169820Y-18136819D01*
X94231143Y-18103334D01*
X94257501Y-18100500D01*
X101511500Y-18100500D01*
X101578539Y-18120185D01*
X101624294Y-18172989D01*
X101635500Y-18224500D01*
X101635500Y-19561870D01*
X101635501Y-19561876D01*
X101641908Y-19621483D01*
X101692202Y-19756328D01*
X101692206Y-19756335D01*
X101778452Y-19871544D01*
X101778453Y-19871544D01*
X101778454Y-19871546D01*
X101812799Y-19897257D01*
X101857518Y-19930734D01*
X101899388Y-19986668D01*
X101904372Y-20056360D01*
X101870886Y-20117683D01*
X101857518Y-20129266D01*
X101778452Y-20188455D01*
X101692206Y-20303664D01*
X101692202Y-20303671D01*
X101641908Y-20438517D01*
X101635501Y-20498116D01*
X101635501Y-20498123D01*
X101635500Y-20498135D01*
X101635500Y-22101870D01*
X101635501Y-22101876D01*
X101641908Y-22161483D01*
X101692202Y-22296328D01*
X101692206Y-22296335D01*
X101778452Y-22411544D01*
X101778453Y-22411544D01*
X101778454Y-22411546D01*
X101812799Y-22437257D01*
X101857518Y-22470734D01*
X101899388Y-22526668D01*
X101904372Y-22596360D01*
X101870886Y-22657683D01*
X101857518Y-22669266D01*
X101778452Y-22728455D01*
X101692206Y-22843664D01*
X101692202Y-22843671D01*
X101641908Y-22978517D01*
X101635501Y-23038116D01*
X101635501Y-23038123D01*
X101635500Y-23038135D01*
X101635500Y-24641870D01*
X101635501Y-24641876D01*
X101641908Y-24701483D01*
X101692202Y-24836328D01*
X101692206Y-24836335D01*
X101778452Y-24951544D01*
X101778453Y-24951544D01*
X101778454Y-24951546D01*
X101812799Y-24977257D01*
X101857518Y-25010734D01*
X101899388Y-25066668D01*
X101904372Y-25136360D01*
X101870886Y-25197683D01*
X101857518Y-25209266D01*
X101778452Y-25268455D01*
X101692206Y-25383664D01*
X101692202Y-25383671D01*
X101641908Y-25518517D01*
X101636585Y-25568033D01*
X101635501Y-25578123D01*
X101635500Y-25578135D01*
X101635500Y-27181870D01*
X101635501Y-27181876D01*
X101641908Y-27241483D01*
X101692202Y-27376328D01*
X101692206Y-27376335D01*
X101778452Y-27491544D01*
X101778453Y-27491544D01*
X101778454Y-27491546D01*
X101818778Y-27521732D01*
X101857935Y-27551046D01*
X101899805Y-27606980D01*
X101904789Y-27676672D01*
X101871303Y-27737994D01*
X101857935Y-27749578D01*
X101778809Y-27808812D01*
X101692649Y-27923906D01*
X101692645Y-27923913D01*
X101642403Y-28058620D01*
X101642401Y-28058627D01*
X101636000Y-28118155D01*
X101636000Y-28670000D01*
X102456988Y-28670000D01*
X102424075Y-28727007D01*
X102390000Y-28854174D01*
X102390000Y-28985826D01*
X102424075Y-29112993D01*
X102456988Y-29170000D01*
X101636000Y-29170000D01*
X101636000Y-29721844D01*
X101642401Y-29781372D01*
X101642403Y-29781379D01*
X101692645Y-29916086D01*
X101692649Y-29916093D01*
X101778809Y-30031186D01*
X101857934Y-30090420D01*
X101899805Y-30146354D01*
X101904789Y-30216046D01*
X101871304Y-30277369D01*
X101857935Y-30288953D01*
X101778452Y-30348455D01*
X101692206Y-30463664D01*
X101692202Y-30463671D01*
X101641908Y-30598517D01*
X101635501Y-30658116D01*
X101635501Y-30658123D01*
X101635500Y-30658135D01*
X101635500Y-32261870D01*
X101635501Y-32261876D01*
X101641908Y-32321483D01*
X101692202Y-32456328D01*
X101692206Y-32456335D01*
X101778452Y-32571544D01*
X101778453Y-32571544D01*
X101778454Y-32571546D01*
X101812799Y-32597257D01*
X101857518Y-32630734D01*
X101899388Y-32686668D01*
X101904372Y-32756360D01*
X101870886Y-32817683D01*
X101857518Y-32829266D01*
X101778452Y-32888455D01*
X101692206Y-33003664D01*
X101692202Y-33003671D01*
X101641908Y-33138517D01*
X101635501Y-33198116D01*
X101635501Y-33198123D01*
X101635500Y-33198135D01*
X101635500Y-34801870D01*
X101635501Y-34801876D01*
X101641908Y-34861483D01*
X101692202Y-34996328D01*
X101692206Y-34996335D01*
X101778452Y-35111544D01*
X101778453Y-35111544D01*
X101778454Y-35111546D01*
X101812799Y-35137257D01*
X101857518Y-35170734D01*
X101899388Y-35226668D01*
X101904372Y-35296360D01*
X101870886Y-35357683D01*
X101857518Y-35369266D01*
X101778452Y-35428455D01*
X101692206Y-35543664D01*
X101692202Y-35543671D01*
X101641908Y-35678517D01*
X101635501Y-35738116D01*
X101635501Y-35738123D01*
X101635500Y-35738135D01*
X101635500Y-37341870D01*
X101635501Y-37341876D01*
X101641908Y-37401483D01*
X101692202Y-37536328D01*
X101692206Y-37536335D01*
X101778452Y-37651544D01*
X101778453Y-37651544D01*
X101778454Y-37651546D01*
X101812799Y-37677257D01*
X101857518Y-37710734D01*
X101899388Y-37766668D01*
X101904372Y-37836360D01*
X101870886Y-37897683D01*
X101857518Y-37909266D01*
X101778452Y-37968455D01*
X101692206Y-38083664D01*
X101692202Y-38083671D01*
X101641908Y-38218517D01*
X101635501Y-38278116D01*
X101635501Y-38278123D01*
X101635500Y-38278135D01*
X101635500Y-39881870D01*
X101635501Y-39881876D01*
X101641908Y-39941483D01*
X101692202Y-40076328D01*
X101692206Y-40076335D01*
X101778452Y-40191544D01*
X101778453Y-40191544D01*
X101778454Y-40191546D01*
X101812799Y-40217257D01*
X101857518Y-40250734D01*
X101899388Y-40306668D01*
X101904372Y-40376360D01*
X101870886Y-40437683D01*
X101857518Y-40449266D01*
X101778452Y-40508455D01*
X101692206Y-40623664D01*
X101692202Y-40623671D01*
X101641908Y-40758517D01*
X101635501Y-40818116D01*
X101635501Y-40818123D01*
X101635500Y-40818135D01*
X101635500Y-42421870D01*
X101635501Y-42421876D01*
X101641908Y-42481483D01*
X101692202Y-42616328D01*
X101692206Y-42616335D01*
X101778452Y-42731544D01*
X101778453Y-42731544D01*
X101778454Y-42731546D01*
X101812799Y-42757257D01*
X101857518Y-42790734D01*
X101899388Y-42846668D01*
X101904372Y-42916360D01*
X101870886Y-42977683D01*
X101857518Y-42989266D01*
X101778452Y-43048455D01*
X101692206Y-43163664D01*
X101692202Y-43163671D01*
X101641908Y-43298517D01*
X101635501Y-43358116D01*
X101635501Y-43358123D01*
X101635500Y-43358135D01*
X101635500Y-44961870D01*
X101635501Y-44961876D01*
X101641908Y-45021483D01*
X101692202Y-45156328D01*
X101692206Y-45156335D01*
X101778452Y-45271544D01*
X101778453Y-45271544D01*
X101778454Y-45271546D01*
X101812799Y-45297257D01*
X101857518Y-45330734D01*
X101899388Y-45386668D01*
X101904372Y-45456360D01*
X101870886Y-45517683D01*
X101857518Y-45529266D01*
X101778452Y-45588455D01*
X101692206Y-45703664D01*
X101692202Y-45703671D01*
X101641908Y-45838517D01*
X101635501Y-45898116D01*
X101635501Y-45898123D01*
X101635500Y-45898135D01*
X101635500Y-45975500D01*
X101615815Y-46042539D01*
X101563011Y-46088294D01*
X101511500Y-46099500D01*
X100000098Y-46099500D01*
X99933059Y-46079815D01*
X99912417Y-46063181D01*
X91330700Y-37481465D01*
X91297215Y-37420142D01*
X91295163Y-37407686D01*
X91285368Y-37320745D01*
X91225789Y-37150478D01*
X91129816Y-36997738D01*
X91002262Y-36870184D01*
X90849523Y-36774211D01*
X90679254Y-36714631D01*
X90679249Y-36714630D01*
X90500004Y-36694435D01*
X90499996Y-36694435D01*
X90320750Y-36714630D01*
X90320745Y-36714631D01*
X90150476Y-36774211D01*
X89997737Y-36870184D01*
X89870184Y-36997737D01*
X89774211Y-37150476D01*
X89714631Y-37320745D01*
X89714630Y-37320750D01*
X89694435Y-37499996D01*
X89694435Y-37500003D01*
X89714630Y-37679249D01*
X89714631Y-37679254D01*
X89774211Y-37849523D01*
X89870184Y-38002262D01*
X89997738Y-38129816D01*
X90150478Y-38225789D01*
X90320745Y-38285368D01*
X90407669Y-38295161D01*
X90472080Y-38322226D01*
X90481465Y-38330700D01*
X90921662Y-38770897D01*
X90955147Y-38832220D01*
X90950163Y-38901912D01*
X90921663Y-38946258D01*
X90870184Y-38997737D01*
X90774211Y-39150476D01*
X90714631Y-39320745D01*
X90714630Y-39320750D01*
X90694435Y-39499996D01*
X90694435Y-39500003D01*
X90714630Y-39679249D01*
X90714631Y-39679254D01*
X90774211Y-39849523D01*
X90811820Y-39909377D01*
X90870184Y-40002262D01*
X90997738Y-40129816D01*
X91150478Y-40225789D01*
X91320745Y-40285368D01*
X91407669Y-40295161D01*
X91472080Y-40322226D01*
X91481465Y-40330700D01*
X94363181Y-43212416D01*
X94396666Y-43273739D01*
X94399500Y-43300097D01*
X94399500Y-45417587D01*
X94379815Y-45484626D01*
X94372450Y-45494896D01*
X94370186Y-45497734D01*
X94274211Y-45650476D01*
X94214631Y-45820745D01*
X94214630Y-45820750D01*
X94194435Y-45999996D01*
X94194435Y-46000003D01*
X94214630Y-46179249D01*
X94214631Y-46179254D01*
X94274211Y-46349523D01*
X94312121Y-46409856D01*
X94370184Y-46502262D01*
X94497738Y-46629816D01*
X94650478Y-46725789D01*
X94820745Y-46785368D01*
X94820750Y-46785369D01*
X94999996Y-46805565D01*
X95000000Y-46805565D01*
X95000004Y-46805565D01*
X95179249Y-46785369D01*
X95179252Y-46785368D01*
X95179255Y-46785368D01*
X95349522Y-46725789D01*
X95502262Y-46629816D01*
X95629816Y-46502262D01*
X95725789Y-46349522D01*
X95785368Y-46179255D01*
X95796572Y-46079815D01*
X95805565Y-46000003D01*
X95805565Y-45999996D01*
X95785369Y-45820750D01*
X95785368Y-45820745D01*
X95744401Y-45703669D01*
X95725789Y-45650478D01*
X95629816Y-45497738D01*
X95629814Y-45497736D01*
X95629813Y-45497734D01*
X95627550Y-45494896D01*
X95626659Y-45492715D01*
X95626111Y-45491842D01*
X95626264Y-45491745D01*
X95601144Y-45430209D01*
X95600500Y-45417587D01*
X95600500Y-43749097D01*
X95620185Y-43682058D01*
X95672989Y-43636303D01*
X95742147Y-43626359D01*
X95805703Y-43655384D01*
X95812180Y-43661415D01*
X99331284Y-47180520D01*
X99331286Y-47180521D01*
X99331290Y-47180524D01*
X99468209Y-47259573D01*
X99468216Y-47259577D01*
X99620943Y-47300501D01*
X99620945Y-47300501D01*
X99786654Y-47300501D01*
X99786670Y-47300500D01*
X101511501Y-47300500D01*
X101578540Y-47320185D01*
X101624295Y-47372989D01*
X101635501Y-47424500D01*
X101635501Y-47501876D01*
X101641908Y-47561483D01*
X101692202Y-47696328D01*
X101692206Y-47696335D01*
X101778452Y-47811544D01*
X101778453Y-47811544D01*
X101778454Y-47811546D01*
X101812799Y-47837257D01*
X101857518Y-47870734D01*
X101899388Y-47926668D01*
X101904372Y-47996360D01*
X101870886Y-48057683D01*
X101857518Y-48069266D01*
X101778452Y-48128455D01*
X101692206Y-48243664D01*
X101692202Y-48243671D01*
X101641908Y-48378517D01*
X101635501Y-48438116D01*
X101635501Y-48438123D01*
X101635500Y-48438135D01*
X101635500Y-50041870D01*
X101635501Y-50041876D01*
X101641908Y-50101483D01*
X101692202Y-50236328D01*
X101692206Y-50236335D01*
X101778452Y-50351544D01*
X101778453Y-50351544D01*
X101778454Y-50351546D01*
X101812799Y-50377257D01*
X101857518Y-50410734D01*
X101899388Y-50466668D01*
X101904372Y-50536360D01*
X101870886Y-50597683D01*
X101857518Y-50609266D01*
X101778452Y-50668455D01*
X101692206Y-50783664D01*
X101692202Y-50783671D01*
X101641908Y-50918517D01*
X101636946Y-50964674D01*
X101635501Y-50978123D01*
X101635500Y-50978135D01*
X101635500Y-52581870D01*
X101635501Y-52581876D01*
X101641908Y-52641483D01*
X101692202Y-52776328D01*
X101692206Y-52776335D01*
X101778452Y-52891544D01*
X101778453Y-52891544D01*
X101778454Y-52891546D01*
X101818778Y-52921732D01*
X101857935Y-52951046D01*
X101899805Y-53006980D01*
X101904789Y-53076672D01*
X101871303Y-53137994D01*
X101857935Y-53149578D01*
X101778809Y-53208812D01*
X101692649Y-53323906D01*
X101692645Y-53323913D01*
X101642403Y-53458620D01*
X101642401Y-53458627D01*
X101636000Y-53518155D01*
X101636000Y-54070000D01*
X102456988Y-54070000D01*
X102424075Y-54127007D01*
X102390000Y-54254174D01*
X102390000Y-54385826D01*
X102424075Y-54512993D01*
X102456988Y-54570000D01*
X101636000Y-54570000D01*
X101636000Y-55121844D01*
X101642401Y-55181372D01*
X101642403Y-55181379D01*
X101692645Y-55316086D01*
X101692649Y-55316093D01*
X101778809Y-55431186D01*
X101857934Y-55490420D01*
X101899805Y-55546354D01*
X101904789Y-55616046D01*
X101871304Y-55677369D01*
X101857935Y-55688953D01*
X101778452Y-55748455D01*
X101692206Y-55863664D01*
X101692202Y-55863671D01*
X101641908Y-55998517D01*
X101635501Y-56058116D01*
X101635501Y-56058123D01*
X101635500Y-56058135D01*
X101635500Y-57661870D01*
X101635501Y-57661876D01*
X101641908Y-57721483D01*
X101692202Y-57856328D01*
X101692206Y-57856335D01*
X101778452Y-57971544D01*
X101778453Y-57971544D01*
X101778454Y-57971546D01*
X101812799Y-57997257D01*
X101857518Y-58030734D01*
X101899388Y-58086668D01*
X101904372Y-58156360D01*
X101870886Y-58217683D01*
X101857518Y-58229266D01*
X101778452Y-58288455D01*
X101692206Y-58403664D01*
X101692202Y-58403671D01*
X101641908Y-58538517D01*
X101635501Y-58598116D01*
X101635501Y-58598123D01*
X101635500Y-58598135D01*
X101635500Y-60201870D01*
X101635501Y-60201876D01*
X101641908Y-60261483D01*
X101692202Y-60396328D01*
X101692206Y-60396335D01*
X101778452Y-60511544D01*
X101778455Y-60511547D01*
X101893664Y-60597793D01*
X101893671Y-60597797D01*
X102028517Y-60648091D01*
X102028516Y-60648091D01*
X102035444Y-60648835D01*
X102088127Y-60654500D01*
X103691872Y-60654499D01*
X103751483Y-60648091D01*
X103886331Y-60597796D01*
X104001546Y-60511546D01*
X104087796Y-60396331D01*
X104138091Y-60261483D01*
X104144500Y-60201873D01*
X104144499Y-58598128D01*
X104138091Y-58538517D01*
X104087796Y-58403669D01*
X104087795Y-58403668D01*
X104087793Y-58403664D01*
X104001547Y-58288455D01*
X104001544Y-58288452D01*
X103922482Y-58229266D01*
X103880611Y-58173333D01*
X103875627Y-58103641D01*
X103909113Y-58042318D01*
X103922482Y-58030734D01*
X103967415Y-57997096D01*
X104001546Y-57971546D01*
X104087796Y-57856331D01*
X104138091Y-57721483D01*
X104144500Y-57661873D01*
X104144499Y-56058128D01*
X104138091Y-55998517D01*
X104087796Y-55863669D01*
X104087795Y-55863668D01*
X104087793Y-55863664D01*
X104001547Y-55748455D01*
X103922064Y-55688953D01*
X103880194Y-55633019D01*
X103875210Y-55563327D01*
X103908696Y-55502004D01*
X103922065Y-55490420D01*
X104001191Y-55431186D01*
X104087350Y-55316093D01*
X104087354Y-55316086D01*
X104137596Y-55181379D01*
X104137598Y-55181372D01*
X104143999Y-55121844D01*
X104144000Y-55121827D01*
X104144000Y-54570000D01*
X103323012Y-54570000D01*
X103355925Y-54512993D01*
X103390000Y-54385826D01*
X103390000Y-54254174D01*
X103355925Y-54127007D01*
X103323012Y-54070000D01*
X104144000Y-54070000D01*
X104144000Y-53518172D01*
X104143999Y-53518155D01*
X104137598Y-53458627D01*
X104137596Y-53458620D01*
X104087354Y-53323913D01*
X104087350Y-53323906D01*
X104001190Y-53208812D01*
X104001187Y-53208809D01*
X103922065Y-53149578D01*
X103880194Y-53093644D01*
X103875210Y-53023953D01*
X103908696Y-52962630D01*
X103922064Y-52951046D01*
X104001546Y-52891546D01*
X104087796Y-52776331D01*
X104138091Y-52641483D01*
X104144500Y-52581873D01*
X104144499Y-50978128D01*
X104138091Y-50918517D01*
X104109834Y-50842757D01*
X104087797Y-50783671D01*
X104087793Y-50783664D01*
X104001547Y-50668455D01*
X104001544Y-50668452D01*
X103922482Y-50609266D01*
X103880611Y-50553333D01*
X103875627Y-50483641D01*
X103909113Y-50422318D01*
X103922482Y-50410734D01*
X103967415Y-50377096D01*
X104001546Y-50351546D01*
X104087796Y-50236331D01*
X104138091Y-50101483D01*
X104144500Y-50041873D01*
X104144499Y-48438128D01*
X104138091Y-48378517D01*
X104090006Y-48249595D01*
X104087797Y-48243671D01*
X104087793Y-48243664D01*
X104001547Y-48128455D01*
X104001544Y-48128452D01*
X103922482Y-48069266D01*
X103880611Y-48013333D01*
X103875627Y-47943641D01*
X103909113Y-47882318D01*
X103922482Y-47870734D01*
X103967415Y-47837096D01*
X104001546Y-47811546D01*
X104087796Y-47696331D01*
X104138091Y-47561483D01*
X104144500Y-47501873D01*
X104144499Y-45898128D01*
X104138091Y-45838517D01*
X104131464Y-45820750D01*
X104087797Y-45703671D01*
X104087793Y-45703664D01*
X104001547Y-45588455D01*
X104001544Y-45588452D01*
X103922482Y-45529266D01*
X103880611Y-45473333D01*
X103875627Y-45403641D01*
X103909113Y-45342318D01*
X103922482Y-45330734D01*
X103967415Y-45297096D01*
X104001546Y-45271546D01*
X104087796Y-45156331D01*
X104138091Y-45021483D01*
X104144500Y-44961873D01*
X104144499Y-43358128D01*
X104138091Y-43298517D01*
X104128849Y-43273739D01*
X104087797Y-43163671D01*
X104087793Y-43163664D01*
X104001547Y-43048455D01*
X104001544Y-43048452D01*
X103922482Y-42989266D01*
X103880611Y-42933333D01*
X103875627Y-42863641D01*
X103909113Y-42802318D01*
X103922482Y-42790734D01*
X103967415Y-42757096D01*
X104001546Y-42731546D01*
X104087796Y-42616331D01*
X104138091Y-42481483D01*
X104144500Y-42421873D01*
X104144499Y-40818128D01*
X104138091Y-40758517D01*
X104087884Y-40623906D01*
X104087797Y-40623671D01*
X104087793Y-40623664D01*
X104001547Y-40508455D01*
X104001544Y-40508452D01*
X103922482Y-40449266D01*
X103880611Y-40393333D01*
X103875627Y-40323641D01*
X103909113Y-40262318D01*
X103922482Y-40250734D01*
X103967415Y-40217096D01*
X104001546Y-40191546D01*
X104087796Y-40076331D01*
X104138091Y-39941483D01*
X104144500Y-39881873D01*
X104144499Y-38999994D01*
X114269443Y-38999994D01*
X114269443Y-39000005D01*
X114289634Y-39243683D01*
X114289636Y-39243695D01*
X114349663Y-39480734D01*
X114447888Y-39704666D01*
X114581632Y-39909378D01*
X114747242Y-40089277D01*
X114747252Y-40089286D01*
X114940208Y-40239470D01*
X114940212Y-40239473D01*
X115115804Y-40334499D01*
X115155267Y-40355855D01*
X115155270Y-40355856D01*
X115386541Y-40435251D01*
X115386543Y-40435251D01*
X115386545Y-40435252D01*
X115627737Y-40475500D01*
X115627738Y-40475500D01*
X115872262Y-40475500D01*
X115872263Y-40475500D01*
X116113455Y-40435252D01*
X116344733Y-40355855D01*
X116559788Y-40239473D01*
X116752754Y-40089281D01*
X116918368Y-39909377D01*
X117052111Y-39704667D01*
X117150336Y-39480736D01*
X117210364Y-39243692D01*
X117230557Y-39000000D01*
X117230369Y-38997737D01*
X117210365Y-38756316D01*
X117210363Y-38756304D01*
X117150336Y-38519265D01*
X117052111Y-38295333D01*
X116918367Y-38090621D01*
X116752757Y-37910722D01*
X116752747Y-37910713D01*
X116559791Y-37760529D01*
X116559787Y-37760526D01*
X116344734Y-37644145D01*
X116344729Y-37644143D01*
X116113458Y-37564748D01*
X115932561Y-37534562D01*
X115872263Y-37524500D01*
X115627737Y-37524500D01*
X115579498Y-37532549D01*
X115386541Y-37564748D01*
X115155270Y-37644143D01*
X115155265Y-37644145D01*
X114940212Y-37760526D01*
X114940208Y-37760529D01*
X114747252Y-37910713D01*
X114747242Y-37910722D01*
X114581632Y-38090621D01*
X114447888Y-38295333D01*
X114349663Y-38519265D01*
X114289636Y-38756304D01*
X114289634Y-38756316D01*
X114269443Y-38999994D01*
X104144499Y-38999994D01*
X104144499Y-38278128D01*
X104138091Y-38218517D01*
X104105007Y-38129815D01*
X104087797Y-38083671D01*
X104087793Y-38083664D01*
X104001547Y-37968455D01*
X104001544Y-37968452D01*
X103922482Y-37909266D01*
X103880611Y-37853333D01*
X103875627Y-37783641D01*
X103909113Y-37722318D01*
X103922482Y-37710734D01*
X103967415Y-37677096D01*
X104001546Y-37651546D01*
X104087796Y-37536331D01*
X104138091Y-37401483D01*
X104144500Y-37341873D01*
X104144499Y-35738128D01*
X104138091Y-35678517D01*
X104087796Y-35543669D01*
X104087795Y-35543668D01*
X104087793Y-35543664D01*
X104001547Y-35428455D01*
X104001544Y-35428452D01*
X103922482Y-35369266D01*
X103880611Y-35313333D01*
X103875627Y-35243641D01*
X103909113Y-35182318D01*
X103922482Y-35170734D01*
X103967415Y-35137096D01*
X104001546Y-35111546D01*
X104087796Y-34996331D01*
X104138091Y-34861483D01*
X104144500Y-34801873D01*
X104144499Y-33999994D01*
X114269443Y-33999994D01*
X114269443Y-34000005D01*
X114289634Y-34243683D01*
X114289636Y-34243695D01*
X114349663Y-34480734D01*
X114447888Y-34704666D01*
X114581632Y-34909378D01*
X114747242Y-35089277D01*
X114747252Y-35089286D01*
X114923760Y-35226668D01*
X114940212Y-35239473D01*
X115155267Y-35355855D01*
X115155270Y-35355856D01*
X115386541Y-35435251D01*
X115386543Y-35435251D01*
X115386545Y-35435252D01*
X115627737Y-35475500D01*
X115627738Y-35475500D01*
X115872262Y-35475500D01*
X115872263Y-35475500D01*
X116113455Y-35435252D01*
X116344733Y-35355855D01*
X116559788Y-35239473D01*
X116752754Y-35089281D01*
X116918368Y-34909377D01*
X117052111Y-34704667D01*
X117150336Y-34480736D01*
X117210364Y-34243692D01*
X117230557Y-34000000D01*
X117210364Y-33756308D01*
X117150336Y-33519264D01*
X117052111Y-33295333D01*
X116988604Y-33198128D01*
X116918367Y-33090621D01*
X116752757Y-32910722D01*
X116752747Y-32910713D01*
X116559791Y-32760529D01*
X116559787Y-32760526D01*
X116344734Y-32644145D01*
X116344729Y-32644143D01*
X116113458Y-32564748D01*
X115932561Y-32534562D01*
X115872263Y-32524500D01*
X115627737Y-32524500D01*
X115579498Y-32532549D01*
X115386541Y-32564748D01*
X115155270Y-32644143D01*
X115155265Y-32644145D01*
X114940212Y-32760526D01*
X114940208Y-32760529D01*
X114747252Y-32910713D01*
X114747242Y-32910722D01*
X114581632Y-33090621D01*
X114447888Y-33295333D01*
X114349663Y-33519265D01*
X114289636Y-33756304D01*
X114289634Y-33756316D01*
X114269443Y-33999994D01*
X104144499Y-33999994D01*
X104144499Y-33198128D01*
X104138091Y-33138517D01*
X104099619Y-33035369D01*
X104087797Y-33003671D01*
X104087793Y-33003664D01*
X104001547Y-32888455D01*
X104001544Y-32888452D01*
X103922482Y-32829266D01*
X103880611Y-32773333D01*
X103875627Y-32703641D01*
X103909113Y-32642318D01*
X103922482Y-32630734D01*
X103967415Y-32597096D01*
X104001546Y-32571546D01*
X104087796Y-32456331D01*
X104138091Y-32321483D01*
X104144500Y-32261873D01*
X104144499Y-30658128D01*
X104138091Y-30598517D01*
X104134563Y-30589059D01*
X104087797Y-30463671D01*
X104087793Y-30463664D01*
X104001547Y-30348455D01*
X103922064Y-30288953D01*
X103880194Y-30233019D01*
X103875210Y-30163327D01*
X103908696Y-30102004D01*
X103922065Y-30090420D01*
X104001191Y-30031186D01*
X104087350Y-29916093D01*
X104087354Y-29916086D01*
X104137596Y-29781379D01*
X104137598Y-29781372D01*
X104143999Y-29721844D01*
X104144000Y-29721827D01*
X104144000Y-29170000D01*
X103323012Y-29170000D01*
X103355925Y-29112993D01*
X103390000Y-28985826D01*
X103390000Y-28854174D01*
X103355925Y-28727007D01*
X103323012Y-28670000D01*
X104144000Y-28670000D01*
X104144000Y-28118172D01*
X104143999Y-28118155D01*
X104137598Y-28058627D01*
X104137596Y-28058620D01*
X104087354Y-27923913D01*
X104087350Y-27923906D01*
X104001190Y-27808812D01*
X104001187Y-27808809D01*
X103922065Y-27749578D01*
X103880194Y-27693644D01*
X103875210Y-27623953D01*
X103908696Y-27562630D01*
X103922064Y-27551046D01*
X104001546Y-27491546D01*
X104087796Y-27376331D01*
X104138091Y-27241483D01*
X104144500Y-27181873D01*
X104144499Y-25578128D01*
X104138091Y-25518517D01*
X104105392Y-25430847D01*
X104087797Y-25383671D01*
X104087793Y-25383664D01*
X104001547Y-25268455D01*
X104001544Y-25268452D01*
X103922482Y-25209266D01*
X103880611Y-25153333D01*
X103875627Y-25083641D01*
X103909113Y-25022318D01*
X103922482Y-25010734D01*
X103967415Y-24977096D01*
X104001546Y-24951546D01*
X104087796Y-24836331D01*
X104138091Y-24701483D01*
X104144500Y-24641873D01*
X104144499Y-23038128D01*
X104138091Y-22978517D01*
X104087796Y-22843669D01*
X104087795Y-22843668D01*
X104087793Y-22843664D01*
X104001547Y-22728455D01*
X104001544Y-22728452D01*
X103922482Y-22669266D01*
X103880611Y-22613333D01*
X103875627Y-22543641D01*
X103909113Y-22482318D01*
X103922482Y-22470734D01*
X103967415Y-22437096D01*
X104001546Y-22411546D01*
X104087796Y-22296331D01*
X104138091Y-22161483D01*
X104144500Y-22101873D01*
X104144499Y-20498128D01*
X104138091Y-20438517D01*
X104087796Y-20303669D01*
X104087795Y-20303668D01*
X104087793Y-20303664D01*
X104001547Y-20188455D01*
X104001544Y-20188452D01*
X103922482Y-20129266D01*
X103880611Y-20073333D01*
X103875627Y-20003641D01*
X103909113Y-19942318D01*
X103922482Y-19930734D01*
X103967415Y-19897096D01*
X104001546Y-19871546D01*
X104087796Y-19756331D01*
X104138091Y-19621483D01*
X104144500Y-19561873D01*
X104144499Y-18224499D01*
X104164184Y-18157461D01*
X104216987Y-18111706D01*
X104268499Y-18100500D01*
X105199903Y-18100500D01*
X105266942Y-18120185D01*
X105287584Y-18136819D01*
X107765139Y-20614374D01*
X107765149Y-20614385D01*
X107769479Y-20618715D01*
X107769480Y-20618716D01*
X107881284Y-20730520D01*
X107968095Y-20780639D01*
X107968097Y-20780641D01*
X108018213Y-20809576D01*
X108018215Y-20809577D01*
X108170942Y-20850500D01*
X108170943Y-20850500D01*
X109171501Y-20850500D01*
X109238540Y-20870185D01*
X109284295Y-20922989D01*
X109295501Y-20974500D01*
X109295501Y-21051876D01*
X109301908Y-21111483D01*
X109352202Y-21246328D01*
X109352206Y-21246335D01*
X109438452Y-21361544D01*
X109438455Y-21361547D01*
X109553664Y-21447793D01*
X109553671Y-21447797D01*
X109688517Y-21498091D01*
X109688516Y-21498091D01*
X109695444Y-21498835D01*
X109748127Y-21504500D01*
X111351872Y-21504499D01*
X111411483Y-21498091D01*
X111546331Y-21447796D01*
X111661546Y-21361546D01*
X111747796Y-21246331D01*
X111798091Y-21111483D01*
X111804500Y-21051873D01*
X111804499Y-19448128D01*
X111798091Y-19388517D01*
X111747796Y-19253669D01*
X111747795Y-19253668D01*
X111747793Y-19253664D01*
X111661547Y-19138455D01*
X111661544Y-19138452D01*
X111546335Y-19052206D01*
X111546328Y-19052202D01*
X111411482Y-19001908D01*
X111411483Y-19001908D01*
X111351883Y-18995501D01*
X111351881Y-18995500D01*
X111351873Y-18995500D01*
X111351865Y-18995500D01*
X111351674Y-18995500D01*
X111351631Y-18995487D01*
X111348548Y-18995322D01*
X111348587Y-18994593D01*
X111284635Y-18975815D01*
X111238880Y-18923011D01*
X111228936Y-18853853D01*
X111257961Y-18790297D01*
X111280551Y-18769925D01*
X111301411Y-18755318D01*
X111359457Y-18714674D01*
X111514674Y-18559457D01*
X111640579Y-18379646D01*
X111733347Y-18180703D01*
X111790161Y-17968674D01*
X111809292Y-17750000D01*
X111808897Y-17745490D01*
X111800408Y-17648454D01*
X111790161Y-17531326D01*
X111733347Y-17319297D01*
X111640579Y-17120354D01*
X111640577Y-17120351D01*
X111640576Y-17120349D01*
X111514677Y-16940547D01*
X111514672Y-16940541D01*
X111359458Y-16785327D01*
X111359452Y-16785322D01*
X111179650Y-16659423D01*
X111179642Y-16659419D01*
X110980708Y-16566655D01*
X110980706Y-16566654D01*
X110980703Y-16566653D01*
X110829885Y-16526240D01*
X110768675Y-16509839D01*
X110768668Y-16509838D01*
X110550002Y-16490708D01*
X110549996Y-16490708D01*
X110460419Y-16498544D01*
X110391919Y-16484777D01*
X110361932Y-16462697D01*
X107217590Y-13318355D01*
X107217588Y-13318352D01*
X107098717Y-13199481D01*
X107098716Y-13199480D01*
X107011904Y-13149360D01*
X107011904Y-13149359D01*
X107011900Y-13149358D01*
X106961785Y-13120423D01*
X106809057Y-13079499D01*
X106650943Y-13079499D01*
X106643347Y-13079499D01*
X106643331Y-13079500D01*
X104268499Y-13079500D01*
X104201460Y-13059815D01*
X104155705Y-13007011D01*
X104144499Y-12955500D01*
X104144499Y-12878129D01*
X104144498Y-12878123D01*
X104144497Y-12878116D01*
X104138091Y-12818517D01*
X104087796Y-12683669D01*
X104087795Y-12683668D01*
X104087793Y-12683664D01*
X104001547Y-12568455D01*
X104001544Y-12568452D01*
X103922482Y-12509266D01*
X103880611Y-12453333D01*
X103875627Y-12383641D01*
X103909113Y-12322318D01*
X103922482Y-12310734D01*
X103967415Y-12277096D01*
X104001546Y-12251546D01*
X104087796Y-12136331D01*
X104138091Y-12001483D01*
X104144500Y-11941873D01*
X104144499Y-10338128D01*
X104138091Y-10278517D01*
X104087796Y-10143669D01*
X104087795Y-10143668D01*
X104087793Y-10143664D01*
X104001547Y-10028455D01*
X104001544Y-10028452D01*
X103886335Y-9942206D01*
X103886328Y-9942202D01*
X103751482Y-9891908D01*
X103751483Y-9891908D01*
X103691883Y-9885501D01*
X103691881Y-9885500D01*
X103691873Y-9885500D01*
X103691864Y-9885500D01*
X102088129Y-9885500D01*
X102088123Y-9885501D01*
X102028516Y-9891908D01*
X101893671Y-9942202D01*
X101893664Y-9942206D01*
X101778455Y-10028452D01*
X101778452Y-10028455D01*
X101692206Y-10143664D01*
X101692202Y-10143671D01*
X101641908Y-10278517D01*
X101635501Y-10338116D01*
X101635501Y-10338123D01*
X101635500Y-10338135D01*
X101635500Y-11941870D01*
X101635501Y-11941876D01*
X101641908Y-12001483D01*
X101692202Y-12136328D01*
X101692206Y-12136335D01*
X101778452Y-12251544D01*
X101778453Y-12251544D01*
X101778454Y-12251546D01*
X101812799Y-12277257D01*
X101857518Y-12310734D01*
X101899388Y-12366668D01*
X101904372Y-12436360D01*
X101870886Y-12497683D01*
X101857518Y-12509266D01*
X101778452Y-12568455D01*
X101692206Y-12683664D01*
X101692202Y-12683671D01*
X101641908Y-12818516D01*
X101641883Y-12818758D01*
X101641810Y-12818933D01*
X101640126Y-12826062D01*
X101638970Y-12825788D01*
X101615144Y-12883308D01*
X101557751Y-12923155D01*
X101518594Y-12929500D01*
X99792229Y-12929500D01*
X99725190Y-12909815D01*
X99704548Y-12893181D01*
X94478421Y-7667052D01*
X94478414Y-7667046D01*
X94404729Y-7617812D01*
X94404729Y-7617813D01*
X94355491Y-7584913D01*
X94218917Y-7528343D01*
X94218907Y-7528340D01*
X94073920Y-7499500D01*
X94073918Y-7499500D01*
X77926082Y-7499500D01*
X77926080Y-7499500D01*
X77781092Y-7528340D01*
X77781086Y-7528342D01*
X77644508Y-7584914D01*
X77644496Y-7584921D01*
X77595269Y-7617813D01*
X77521588Y-7667044D01*
X77521580Y-7667050D01*
X76167050Y-9021580D01*
X76167044Y-9021588D01*
X76117812Y-9095268D01*
X76117813Y-9095269D01*
X76084921Y-9144496D01*
X76084914Y-9144508D01*
X76028342Y-9281086D01*
X76028340Y-9281092D01*
X75999500Y-9426079D01*
X75999500Y-15960786D01*
X75979815Y-16027825D01*
X75951662Y-16058639D01*
X75777834Y-16193934D01*
X75777824Y-16193943D01*
X75617265Y-16368355D01*
X75487600Y-16566824D01*
X75392370Y-16783924D01*
X75334173Y-17013743D01*
X75314597Y-17249994D01*
X75314597Y-17250005D01*
X75334173Y-17486256D01*
X75334173Y-17486259D01*
X75334174Y-17486260D01*
X75339046Y-17505501D01*
X75383626Y-17681541D01*
X75381001Y-17751361D01*
X75351101Y-17799662D01*
X67131286Y-26019478D01*
X67019481Y-26131282D01*
X67019479Y-26131284D01*
X66996595Y-26170922D01*
X66986922Y-26187677D01*
X66940423Y-26268215D01*
X66899499Y-26420943D01*
X66899499Y-26420945D01*
X66899499Y-26589046D01*
X66899500Y-26589059D01*
X66899500Y-50549902D01*
X66879815Y-50616941D01*
X66863181Y-50637583D01*
X65235713Y-52265050D01*
X65174390Y-52298535D01*
X65104698Y-52293551D01*
X65048765Y-52251679D01*
X65024348Y-52186215D01*
X65024503Y-52166575D01*
X65039077Y-52000000D01*
X65020405Y-51786573D01*
X64986470Y-51659926D01*
X64964957Y-51579638D01*
X64964956Y-51579637D01*
X64964955Y-51579631D01*
X64874412Y-51385462D01*
X64843086Y-51340724D01*
X64751529Y-51209966D01*
X64701378Y-51159815D01*
X64600035Y-51058472D01*
X64424539Y-50935588D01*
X64424540Y-50935588D01*
X64424538Y-50935587D01*
X64225462Y-50842757D01*
X64226448Y-50840641D01*
X64178178Y-50805117D01*
X64153228Y-50739854D01*
X64167523Y-50671462D01*
X64216524Y-50621656D01*
X64225589Y-50617516D01*
X64225462Y-50617243D01*
X64259727Y-50601265D01*
X64424539Y-50524412D01*
X64600035Y-50401528D01*
X64751528Y-50250035D01*
X64874412Y-50074539D01*
X64964955Y-49880369D01*
X65020405Y-49673427D01*
X65039077Y-49460000D01*
X65037364Y-49440424D01*
X65031234Y-49370354D01*
X65020405Y-49246573D01*
X64964955Y-49039631D01*
X64874412Y-48845462D01*
X64854895Y-48817589D01*
X64751529Y-48669966D01*
X64718905Y-48637342D01*
X64600035Y-48518472D01*
X64424539Y-48395588D01*
X64424540Y-48395588D01*
X64424538Y-48395587D01*
X64327454Y-48350316D01*
X64230369Y-48305045D01*
X64230365Y-48305044D01*
X64230361Y-48305042D01*
X64023427Y-48249595D01*
X63810002Y-48230923D01*
X63809998Y-48230923D01*
X63667715Y-48243371D01*
X63596573Y-48249595D01*
X63596570Y-48249595D01*
X63389638Y-48305042D01*
X63389629Y-48305046D01*
X63195462Y-48395587D01*
X63195460Y-48395588D01*
X63019963Y-48518472D01*
X62868472Y-48669963D01*
X62745588Y-48845460D01*
X62745587Y-48845462D01*
X62715763Y-48909421D01*
X62657053Y-49035326D01*
X62655046Y-49039629D01*
X62655042Y-49039638D01*
X62599595Y-49246570D01*
X62599595Y-49246574D01*
X62582636Y-49440424D01*
X62580923Y-49460000D01*
X60000000Y-49460000D01*
X60000000Y-5749999D01*
X110544422Y-5749999D01*
X110544422Y-5750000D01*
X110564722Y-6137339D01*
X110625397Y-6520427D01*
X110625397Y-6520429D01*
X110725788Y-6895094D01*
X110864787Y-7257197D01*
X111040877Y-7602793D01*
X111252122Y-7928082D01*
X111252124Y-7928084D01*
X111496219Y-8229516D01*
X111770484Y-8503781D01*
X111770488Y-8503784D01*
X112071917Y-8747877D01*
X112397206Y-8959122D01*
X112397211Y-8959125D01*
X112742806Y-9135214D01*
X113104913Y-9274214D01*
X113479567Y-9374602D01*
X113862662Y-9435278D01*
X114228576Y-9454455D01*
X114249999Y-9455578D01*
X114250000Y-9455578D01*
X114250001Y-9455578D01*
X114270301Y-9454514D01*
X114637338Y-9435278D01*
X115020433Y-9374602D01*
X115395087Y-9274214D01*
X115757194Y-9135214D01*
X116102789Y-8959125D01*
X116428084Y-8747876D01*
X116729516Y-8503781D01*
X117003781Y-8229516D01*
X117247876Y-7928084D01*
X117459125Y-7602789D01*
X117635214Y-7257194D01*
X117774214Y-6895087D01*
X117874602Y-6520433D01*
X117935278Y-6137338D01*
X117955578Y-5750000D01*
X117935278Y-5362662D01*
X117874602Y-4979567D01*
X117774214Y-4604913D01*
X117635214Y-4242806D01*
X117459125Y-3897211D01*
X117247876Y-3571916D01*
X117003781Y-3270484D01*
X116729516Y-2996219D01*
X116428084Y-2752124D01*
X116428082Y-2752122D01*
X116102793Y-2540877D01*
X115757197Y-2364787D01*
X115395094Y-2225788D01*
X115395087Y-2225786D01*
X115020433Y-2125398D01*
X115020429Y-2125397D01*
X115020428Y-2125397D01*
X114637339Y-2064722D01*
X114250001Y-2044422D01*
X114249999Y-2044422D01*
X113862660Y-2064722D01*
X113479572Y-2125397D01*
X113479570Y-2125397D01*
X113104905Y-2225788D01*
X112742802Y-2364787D01*
X112397206Y-2540877D01*
X112071917Y-2752122D01*
X111770488Y-2996215D01*
X111770480Y-2996222D01*
X111496222Y-3270480D01*
X111496215Y-3270488D01*
X111252122Y-3571917D01*
X111040877Y-3897206D01*
X110864787Y-4242802D01*
X110725788Y-4604905D01*
X110625397Y-4979570D01*
X110625397Y-4979572D01*
X110564722Y-5362660D01*
X110544422Y-5749999D01*
X60000000Y-5749999D01*
X60000000Y-624500D01*
X60019685Y-557461D01*
X60072489Y-511706D01*
X60124000Y-500500D01*
X119375500Y-500500D01*
X119442539Y-520185D01*
G37*
%TD.AperFunction*%
%TD*%
M02*
